<svg width="18" height="18" viewBox="0 0 18 18" fill="none" xmlns="http://www.w3.org/2000/svg">
<path d="M8.98693 10.7831L8.98706 10.7832L11.3056 12.1668C11.4603 12.2674 11.6248 12.3022 11.775 12.3022C12.0847 12.3022 12.3892 12.1467 12.5606 11.8556C12.8251 11.4191 12.6784 10.8606 12.2442 10.6061L9.92044 9.21934L9.92045 9.21931L9.91685 9.21723C9.87384 9.19225 9.79738 9.11653 9.72838 8.99521C9.65963 8.87433 9.63222 8.76781 9.63222 8.715V5.64C9.63222 5.14073 9.22177 4.73028 8.7225 4.73028C8.22323 4.73028 7.81278 5.14073 7.81278 5.64V8.715C7.81278 9.50443 8.30428 10.3753 8.98693 10.7831ZM1.84722 9C1.84722 5.05927 5.05927 1.84722 9 1.84722C12.9407 1.84722 16.1528 5.05927 16.1528 9C16.1528 12.9407 12.9407 16.1528 9 16.1528C5.05927 16.1528 1.84722 12.9407 1.84722 9Z" fill="#FE4557" stroke="#FE4557" stroke-width="0.694444"/>
</svg>
