<svg width="95" height="18" viewBox="0 0 95 18" fill="none" xmlns="http://www.w3.org/2000/svg">
<path d="M9 16.5C4.86 16.5 1.5 13.14 1.5 9C1.5 4.86 4.86 1.5 9 1.5C13.14 1.5 16.5 4.86 16.5 9C16.5 13.14 13.14 16.5 9 16.5Z" stroke="white" stroke-linecap="round" stroke-linejoin="round"/>
<path d="M11.1597 11.25C10.6272 11.715 9.93719 12 9.17969 12C7.52219 12 6.17969 10.6575 6.17969 9C6.17969 7.3425 7.52219 6 9.17969 6C9.93719 6 10.6272 6.285 11.1597 6.75" stroke="white" stroke-linecap="round" stroke-linejoin="round"/>
<path d="M24.3331 3.81818H26.0781L28.7379 8.44673H28.8473L31.5071 3.81818H33.2521L29.5582 10.0028V14H28.027V10.0028L24.3331 3.81818ZM34.843 5.14062V3.81818H42.723V5.14062H39.5462V14H38.0149V5.14062H34.843ZM46.0005 3.81818V14H44.4643V3.81818H46.0005ZM47.7356 5.14062V3.81818H55.6156V5.14062H52.4387V14H50.9075V5.14062H47.7356ZM60.9228 14V12.8864L64.3681 9.31676C64.736 8.92898 65.0392 8.58925 65.2779 8.29759C65.5198 8.0026 65.7005 7.72254 65.8198 7.45739C65.9391 7.19223 65.9988 6.91051 65.9988 6.61222C65.9988 6.27415 65.9192 5.98248 65.7601 5.73722C65.601 5.48864 65.3839 5.29806 65.1088 5.16548C64.8337 5.02959 64.5239 4.96165 64.1792 4.96165C63.8146 4.96165 63.4964 5.03622 63.2246 5.18537C62.9528 5.33452 62.744 5.54498 62.5982 5.81676C62.4524 6.08854 62.3794 6.40672 62.3794 6.77131H60.9128C60.9128 6.15151 61.0553 5.60961 61.3404 5.1456C61.6254 4.68158 62.0165 4.32197 62.5137 4.06676C63.0108 3.80824 63.5759 3.67898 64.209 3.67898C64.8487 3.67898 65.4121 3.80658 65.8993 4.06179C66.3899 4.31368 66.7727 4.65838 67.0478 5.09588C67.3229 5.53007 67.4604 6.0206 67.4604 6.56747C67.4604 6.94531 67.3891 7.31487 67.2466 7.67614C67.1074 8.0374 66.8638 8.4401 66.5158 8.88423C66.1678 9.32505 65.6839 9.86032 65.0641 10.4901L63.0407 12.608V12.6825H67.6245V14H60.9228ZM73.0534 14.169C72.2679 14.1657 71.5968 13.9586 71.04 13.5476C70.4831 13.1366 70.0572 12.5384 69.7623 11.7528C69.4673 10.9673 69.3198 10.0211 69.3198 8.91406C69.3198 7.81037 69.4673 6.86742 69.7623 6.08523C70.0605 5.30303 70.4881 4.70644 71.0449 4.29545C71.6051 3.88447 72.2746 3.67898 73.0534 3.67898C73.8323 3.67898 74.5002 3.88613 75.057 4.30043C75.6138 4.71141 76.0397 5.308 76.3347 6.0902C76.633 6.86908 76.7821 7.81037 76.7821 8.91406C76.7821 10.0244 76.6346 10.9723 76.3397 11.7578C76.0447 12.54 75.6188 13.1383 75.062 13.5526C74.5051 13.9635 73.8356 14.169 73.0534 14.169ZM73.0534 12.8416C73.7428 12.8416 74.2814 12.5052 74.6692 11.8324C75.0603 11.1596 75.2559 10.1868 75.2559 8.91406C75.2559 8.06889 75.1664 7.35464 74.9874 6.77131C74.8117 6.18466 74.5582 5.74053 74.2267 5.43892C73.8986 5.134 73.5075 4.98153 73.0534 4.98153C72.3674 4.98153 71.8288 5.3196 71.4377 5.99574C71.0466 6.67187 70.8494 7.64465 70.8461 8.91406C70.8461 9.76255 70.9339 10.4801 71.1096 11.0668C71.2885 11.6501 71.5421 12.0926 71.8702 12.3942C72.1983 12.6925 72.5927 12.8416 73.0534 12.8416ZM78.5458 14V12.8864L81.9911 9.31676C82.359 8.92898 82.6623 8.58925 82.9009 8.29759C83.1429 8.0026 83.3235 7.72254 83.4428 7.45739C83.5621 7.19223 83.6218 6.91051 83.6218 6.61222C83.6218 6.27415 83.5423 5.98248 83.3832 5.73722C83.2241 5.48864 83.007 5.29806 82.7319 5.16548C82.4568 5.02959 82.1469 4.96165 81.8022 4.96165C81.4376 4.96165 81.1194 5.03622 80.8477 5.18537C80.5759 5.33452 80.3671 5.54498 80.2212 5.81676C80.0754 6.08854 80.0025 6.40672 80.0025 6.77131H78.5359C78.5359 6.15151 78.6784 5.60961 78.9634 5.1456C79.2485 4.68158 79.6396 4.32197 80.1367 4.06676C80.6339 3.80824 81.199 3.67898 81.832 3.67898C82.4717 3.67898 83.0352 3.80658 83.5224 4.06179C84.0129 4.31368 84.3957 4.65838 84.6708 5.09588C84.9459 5.53007 85.0835 6.0206 85.0835 6.56747C85.0835 6.94531 85.0122 7.31487 84.8697 7.67614C84.7305 8.0374 84.4869 8.4401 84.1388 8.88423C83.7908 9.32505 83.3069 9.86032 82.6871 10.4901L80.6637 12.608V12.6825H85.2475V14H78.5458ZM87.1317 14V12.8864L90.5771 9.31676C90.945 8.92898 91.2482 8.58925 91.4869 8.29759C91.7288 8.0026 91.9094 7.72254 92.0288 7.45739C92.1481 7.19223 92.2077 6.91051 92.2077 6.61222C92.2077 6.27415 92.1282 5.98248 91.9691 5.73722C91.81 5.48864 91.5929 5.29806 91.3178 5.16548C91.0427 5.02959 90.7328 4.96165 90.3881 4.96165C90.0236 4.96165 89.7054 5.03622 89.4336 5.18537C89.1618 5.33452 88.953 5.54498 88.8072 5.81676C88.6613 6.08854 88.5884 6.40672 88.5884 6.77131H87.1218C87.1218 6.15151 87.2643 5.60961 87.5494 5.1456C87.8344 4.68158 88.2255 4.32197 88.7227 4.06676C89.2198 3.80824 89.7849 3.67898 90.418 3.67898C91.0576 3.67898 91.6211 3.80658 92.1083 4.06179C92.5988 4.31368 92.9817 4.65838 93.2567 5.09588C93.5318 5.53007 93.6694 6.0206 93.6694 6.56747C93.6694 6.94531 93.5981 7.31487 93.4556 7.67614C93.3164 8.0374 93.0728 8.4401 92.7248 8.88423C92.3768 9.32505 91.8929 9.86032 91.2731 10.4901L89.2496 12.608V12.6825H93.8335V14H87.1317Z" fill="white"/>
</svg>
