<svg width="40" height="40" viewBox="0 0 40 40" fill="none" xmlns="http://www.w3.org/2000/svg">
<rect opacity="0.2" width="40" height="40" rx="8" fill="#FFAD47"/>
<path d="M15 16H12C10.9 16 10 15.1 10 14V12C10 10.9 10.9 10 12 10H15C16.1 10 17 10.9 17 12V14C17 15.1 16.1 16 15 16Z" fill="#FFAD47"/>
<path d="M28.8 15H25.2C24.54 15 24 14.46 24 13.8V12.2C24 11.54 24.54 11 25.2 11H28.8C29.46 11 30 11.54 30 12.2V13.8C30 14.46 29.46 15 28.8 15Z" fill="#FFAD47"/>
<path d="M28.8 22.5H25.2C24.54 22.5 24 21.96 24 21.3V19.7C24 19.04 24.54 18.5 25.2 18.5H28.8C29.46 18.5 30 19.04 30 19.7V21.3C30 21.96 29.46 22.5 28.8 22.5Z" fill="#FFAD47"/>
<path opacity="0.96" d="M24 21.25C24.41 21.25 24.75 20.91 24.75 20.5C24.75 20.09 24.41 19.75 24 19.75H21.25V13.75H24C24.41 13.75 24.75 13.41 24.75 13C24.75 12.59 24.41 12.25 24 12.25H17C16.59 12.25 16.25 12.59 16.25 13C16.25 13.41 16.59 13.75 17 13.75H19.75V26C19.75 27.52 20.98 28.75 22.5 28.75H24C24.41 28.75 24.75 28.41 24.75 28C24.75 27.59 24.41 27.25 24 27.25H22.5C21.81 27.25 21.25 26.69 21.25 26V21.25H24Z" fill="#FFAD47"/>
<path d="M28.8 30H25.2C24.54 30 24 29.46 24 28.8V27.2C24 26.54 24.54 26 25.2 26H28.8C29.46 26 30 26.54 30 27.2V28.8C30 29.46 29.46 30 28.8 30Z" fill="#FFAD47"/>
</svg>
