<svg width="48" height="48" viewBox="0 0 48 48" fill="none" xmlns="http://www.w3.org/2000/svg">
<rect x="0.5" y="0.5" width="47" height="47" rx="7.5" stroke="#D9DDE1"/>
<path d="M17.4004 14.1H30.6004C31.7004 14.1 32.6004 15 32.6004 16.1V18.3C32.6004 19.1 32.1004 20.1 31.6004 20.6L27.3004 24.4C26.7004 24.9 26.3004 25.9 26.3004 26.7V31C26.3004 31.6 25.9004 32.4 25.4004 32.7L24.0004 33.6C22.7004 34.4 20.9004 33.5 20.9004 31.9V26.6C20.9004 25.9 20.5004 25 20.1004 24.5L16.3004 20.5C15.8004 20 15.4004 19.1 15.4004 18.5V16.2C15.4004 15 16.3004 14.1 17.4004 14.1Z" stroke="#111111" stroke-width="1.5" stroke-miterlimit="10" stroke-linecap="round" stroke-linejoin="round"/>
</svg>
