<svg width="18" height="18" viewBox="0 0 18 18" fill="none" xmlns="http://www.w3.org/2000/svg">
<path d="M14.0317 3.74152L14.0325 3.74348C14.1965 4.13612 14.0388 4.74235 13.2793 5.5018L12.3793 6.4018C12.0696 6.71154 11.8961 7.13738 11.9144 7.57151C11.9248 7.9609 12.0859 8.32424 12.3724 8.57628L13.2782 9.48205C13.2784 9.48227 13.2786 9.4825 13.2789 9.48272C14.0213 10.2327 14.1748 10.8318 14.01 11.2265C13.8438 11.6242 13.3064 11.9442 12.2625 11.9442H4.42505H4.09172V12.2775V15.9375C4.09172 16.0609 3.98595 16.1667 3.86255 16.1667C3.73914 16.1667 3.63338 16.0609 3.63338 15.9375V2.0625C3.63338 1.93909 3.73914 1.83333 3.86255 1.83333C3.98595 1.83333 4.09172 1.93909 4.09172 2.0625V2.7075V3.04083H4.42505H12.2625C13.3306 3.04083 13.8744 3.35814 14.0317 3.74152Z" fill="#1A5CCE" stroke="#1A5CCE" stroke-width="0.666667"/>
</svg>
