<svg width="27" height="36" viewBox="0 0 27 36" fill="none" xmlns="http://www.w3.org/2000/svg">
<path d="M4.5 0H16.4093C17.0059 0.000127434 17.5781 0.237264 18 0.65925L26.3407 9C26.7627 9.42186 26.9999 9.99406 27 10.5907V31.5C27 32.6935 26.5259 33.8381 25.682 34.682C24.8381 35.5259 23.6935 36 22.5 36H4.5C3.30653 36 2.16193 35.5259 1.31802 34.682C0.474106 33.8381 0 32.6935 0 31.5V4.5C0 3.30653 0.474106 2.16193 1.31802 1.31802C2.16193 0.474106 3.30653 0 4.5 0V0ZM16.875 3.375V7.875C16.875 8.47174 17.1121 9.04403 17.534 9.46599C17.956 9.88795 18.5283 10.125 19.125 10.125H23.625L16.875 3.375Z" fill="#27AE60"/>
<path d="M6.38322 24.2804C6.17553 24.2804 6.00476 24.2204 5.87092 24.1004C5.74168 23.9758 5.67707 23.8235 5.67707 23.6435C5.67707 23.4589 5.74168 23.3042 5.87092 23.1796C6.00476 23.055 6.17553 22.9927 6.38322 22.9927C6.5863 22.9927 6.75245 23.055 6.88169 23.1796C7.01553 23.3042 7.08245 23.4589 7.08245 23.6435C7.08245 23.8235 7.01553 23.9758 6.88169 24.1004C6.75245 24.2204 6.5863 24.2804 6.38322 24.2804ZM11.1063 24.225L10.1163 22.7365L9.24402 24.225H7.90095L9.45864 21.7535L7.86633 19.365H9.24402L10.2202 20.8327L11.0786 19.365H12.4217L10.8779 21.8158L12.484 24.225H11.1063ZM14.6083 23.3112H16.1591V24.225H13.4245V19.365H14.6083V23.3112ZM18.8284 24.2735C18.473 24.2735 18.1545 24.2158 17.873 24.1004C17.5915 23.985 17.3653 23.8142 17.1945 23.5881C17.0284 23.3619 16.9407 23.0896 16.9315 22.7712H18.1915C18.2099 22.9512 18.2722 23.0896 18.3784 23.1865C18.4845 23.2789 18.623 23.325 18.7938 23.325C18.9691 23.325 19.1076 23.2858 19.2091 23.2073C19.3107 23.1242 19.3615 23.0112 19.3615 22.8681C19.3615 22.7481 19.3199 22.6489 19.2368 22.5704C19.1584 22.4919 19.0591 22.4273 18.9391 22.3765C18.8238 22.3258 18.6576 22.2681 18.4407 22.2035C18.1268 22.1065 17.8707 22.0096 17.6722 21.9127C17.4738 21.8158 17.303 21.6727 17.1599 21.4835C17.0168 21.2942 16.9453 21.0473 16.9453 20.7427C16.9453 20.2904 17.1091 19.9373 17.4368 19.6835C17.7645 19.425 18.1915 19.2958 18.7176 19.2958C19.253 19.2958 19.6845 19.425 20.0122 19.6835C20.3399 19.9373 20.5153 20.2927 20.5384 20.7496H19.2576C19.2484 20.5927 19.1907 20.4704 19.0845 20.3827C18.9784 20.2904 18.8422 20.2442 18.6761 20.2442C18.533 20.2442 18.4176 20.2835 18.3299 20.3619C18.2422 20.4358 18.1984 20.5442 18.1984 20.6873C18.1984 20.8442 18.2722 20.9665 18.4199 21.0542C18.5676 21.1419 18.7984 21.2365 19.1122 21.3381C19.4261 21.4442 19.6799 21.5458 19.8738 21.6427C20.0722 21.7396 20.243 21.8804 20.3861 22.065C20.5291 22.2496 20.6007 22.4873 20.6007 22.7781C20.6007 23.055 20.5291 23.3065 20.3861 23.5327C20.2476 23.7589 20.0445 23.9389 19.7768 24.0727C19.5091 24.2065 19.193 24.2735 18.8284 24.2735Z" fill="white"/>
</svg>
