<svg width="27" height="36" viewBox="0 0 27 36" fill="none" xmlns="http://www.w3.org/2000/svg">
<path d="M4.5 0H16.4093C17.0059 0.000127434 17.5781 0.237264 18 0.65925L26.3407 9C26.7627 9.42186 26.9999 9.99406 27 10.5907V31.5C27 32.6935 26.5259 33.8381 25.682 34.682C24.8381 35.5259 23.6935 36 22.5 36H4.5C3.30653 36 2.16193 35.5259 1.31802 34.682C0.474106 33.8381 0 32.6935 0 31.5V4.5C0 3.30653 0.474106 2.16193 1.31802 1.31802C2.16193 0.474106 3.30653 0 4.5 0V0ZM16.875 3.375V7.875C16.875 8.47174 17.1121 9.04403 17.534 9.46599C17.956 9.88795 18.5283 10.125 19.125 10.125H23.625L16.875 3.375Z" fill="#F1351B"/>
<path d="M6.38298 24.2805C6.17529 24.2805 6.00452 24.2205 5.87067 24.1005C5.74144 23.9759 5.67683 23.8236 5.67683 23.6436C5.67683 23.4589 5.74144 23.3043 5.87067 23.1797C6.00452 23.0551 6.17529 22.9928 6.38298 22.9928C6.58606 22.9928 6.75221 23.0551 6.88144 23.1797C7.01529 23.3043 7.08221 23.4589 7.08221 23.6436C7.08221 23.8236 7.01529 23.9759 6.88144 24.1005C6.75221 24.2205 6.58606 24.2805 6.38298 24.2805ZM11.833 20.9297C11.833 21.2113 11.7684 21.4697 11.6392 21.7051C11.5099 21.9359 11.3115 22.1228 11.0438 22.2659C10.7761 22.4089 10.4438 22.4805 10.0469 22.4805H9.31301V24.2251H8.12916V19.3651H10.0469C10.4345 19.3651 10.7622 19.432 11.0299 19.5659C11.2976 19.6997 11.4984 19.8843 11.6322 20.1197C11.7661 20.3551 11.833 20.6251 11.833 20.9297ZM9.95686 21.5389C10.183 21.5389 10.3515 21.4859 10.4622 21.3797C10.573 21.2736 10.6284 21.1236 10.6284 20.9297C10.6284 20.7359 10.573 20.5859 10.4622 20.4797C10.3515 20.3736 10.183 20.3205 9.95686 20.3205H9.31301V21.5389H9.95686ZM14.6162 19.3651C15.1286 19.3651 15.5762 19.4666 15.9593 19.6697C16.3424 19.8728 16.6378 20.1589 16.8455 20.5282C17.0578 20.8928 17.1639 21.3151 17.1639 21.7951C17.1639 22.2705 17.0578 22.6928 16.8455 23.062C16.6378 23.4313 16.3401 23.7174 15.9524 23.9205C15.5693 24.1236 15.1239 24.2251 14.6162 24.2251H12.7955V19.3651H14.6162ZM14.5401 23.2005C14.9878 23.2005 15.3362 23.0782 15.5855 22.8336C15.8347 22.5889 15.9593 22.2428 15.9593 21.7951C15.9593 21.3474 15.8347 20.9989 15.5855 20.7497C15.3362 20.5005 14.9878 20.3759 14.5401 20.3759H13.9793V23.2005H14.5401ZM21.3355 19.3651V20.3136H19.3555V21.3382H20.8371V22.2589H19.3555V24.2251H18.1717V19.3651H21.3355Z" fill="white"/>
</svg>
