<svg width="56" height="56" viewBox="0 0 56 56" fill="none" xmlns="http://www.w3.org/2000/svg">
<path d="M31.4206 22.955H24.5794C24.6128 21.5551 24.8348 20.9354 25.1059 20.6196C25.3417 20.3451 25.9719 19.9083 28 19.9083C30.0281 19.9083 30.6583 20.3451 30.8941 20.6196C31.1652 20.9354 31.3872 21.5551 31.4206 22.955Z" fill="#1A5CCE" stroke="#1A5CCE" stroke-width="3.65"/>
<path d="M28.7424 32.6667C28.7424 33.0763 28.4104 33.4083 28.0007 33.4083C27.5911 33.4083 27.2591 33.0763 27.2591 32.6667C27.2591 32.257 27.5911 31.925 28.0007 31.925C28.4104 31.925 28.7424 32.257 28.7424 32.6667Z" fill="#1A5CCE" stroke="#1A5CCE" stroke-width="3.65"/>
<path d="M6.49102 28C6.49102 16.1279 16.1273 6.49167 27.9994 6.49167C39.8714 6.49167 49.5077 16.1279 49.5077 28C49.5077 39.8721 39.8714 49.5083 27.9994 49.5083C16.1273 49.5083 6.49102 39.8721 6.49102 28ZM33.8327 42.3783C36.4692 42.3783 38.8171 41.9998 40.4082 40.4088C41.9992 38.8178 42.3777 36.4698 42.3777 33.8333V31.5C42.3777 29.4237 42.1417 27.5664 41.302 26.101C40.6467 24.9574 39.711 24.1932 38.5744 23.7066V23.3333C38.5744 23.3134 38.5744 23.2929 38.5744 23.2718C38.5749 22.1728 38.5761 19.5798 37.2406 17.2399C35.7687 14.6612 32.9144 12.7583 27.9994 12.7583C23.0843 12.7583 20.23 14.6612 18.7581 17.2399C17.4226 19.5798 17.4238 22.1728 17.4243 23.2718C17.4243 23.2929 17.4243 23.3134 17.4243 23.3333V23.7066C16.2877 24.1932 15.352 24.9574 14.6967 26.101C13.857 27.5664 13.621 29.4237 13.621 31.5V33.8333C13.621 36.4698 13.9995 38.8178 15.5905 40.4088C17.1816 41.9998 19.5295 42.3783 22.166 42.3783H33.8327Z" fill="#1A5CCE" stroke="#1A5CCE" stroke-width="3.65"/>
</svg>
