<svg width="40" height="40" viewBox="0 0 40 40" fill="none" xmlns="http://www.w3.org/2000/svg">
<rect opacity="0.2" width="40" height="40" rx="8" fill="#FE4557"/>
<path d="M24.19 10H15.81C12.17 10 10 12.17 10 15.81V24.18C10 27.83 12.17 30 15.81 30H24.18C27.82 30 29.99 27.83 29.99 24.19V15.81C30 12.17 27.83 10 24.19 10ZM19.03 25.66C19.32 25.95 19.32 26.43 19.03 26.72C18.88 26.87 18.69 26.94 18.5 26.94C18.31 26.94 18.12 26.87 17.97 26.72L16.25 25L14.53 26.72C14.38 26.86 14.19 26.94 14 26.94C13.81 26.94 13.62 26.87 13.47 26.72C13.18 26.43 13.18 25.95 13.47 25.66L15.19 23.94L13.47 22.22C13.18 21.93 13.18 21.45 13.47 21.16C13.76 20.87 14.24 20.87 14.53 21.16L16.25 22.88L17.97 21.16C18.26 20.87 18.74 20.87 19.03 21.16C19.32 21.45 19.32 21.93 19.03 22.22L17.31 23.94L19.03 25.66ZM18.5 16.81H14C13.59 16.81 13.25 16.47 13.25 16.06C13.25 15.65 13.59 15.31 14 15.31H18.5C18.91 15.31 19.25 15.65 19.25 16.06C19.25 16.47 18.91 16.81 18.5 16.81ZM26 26.56H21.5C21.09 26.56 20.75 26.22 20.75 25.81C20.75 25.4 21.09 25.06 21.5 25.06H26C26.41 25.06 26.75 25.4 26.75 25.81C26.75 26.22 26.41 26.56 26 26.56ZM26 22.81H21.5C21.09 22.81 20.75 22.47 20.75 22.06C20.75 21.65 21.09 21.31 21.5 21.31H26C26.41 21.31 26.75 21.65 26.75 22.06C26.75 22.47 26.41 22.81 26 22.81ZM26 16.81H24.52V18.31C24.52 18.72 24.18 19.06 23.77 19.06C23.36 19.06 23.02 18.72 23.02 18.31V16.81H21.5C21.09 16.81 20.75 16.47 20.75 16.06C20.75 15.65 21.09 15.31 21.5 15.31H23.02V13.81C23.02 13.4 23.36 13.06 23.77 13.06C24.18 13.06 24.52 13.4 24.52 13.81V15.31H26C26.41 15.31 26.75 15.65 26.75 16.06C26.75 16.47 26.41 16.81 26 16.81Z" fill="#FE4557"/>
</svg>
