<svg width="24" height="24" viewBox="0 0 24 24" fill="none" xmlns="http://www.w3.org/2000/svg">
<path d="M15.5799 12C15.5799 13.98 13.9799 15.58 11.9999 15.58C10.0199 15.58 8.41992 13.98 8.41992 12C8.41992 10.02 10.0199 8.41998 11.9999 8.41998C13.9799 8.41998 15.5799 10.02 15.5799 12Z" stroke="#8996A2" stroke-width="1.8" stroke-linecap="round" stroke-linejoin="round"/>
<path d="M12.0003 20.27C15.5303 20.27 18.8203 18.19 21.1103 14.59C22.0103 13.18 22.0103 10.81 21.1103 9.39997C18.8203 5.79997 15.5303 3.71997 12.0003 3.71997C8.47033 3.71997 5.18033 5.79997 2.89033 9.39997C1.99033 10.81 1.99033 13.18 2.89033 14.59C5.18033 18.19 8.47033 20.27 12.0003 20.27Z" stroke="#8996A2" stroke-width="1.8" stroke-linecap="round" stroke-linejoin="round"/>
</svg>
