<svg width="18" height="18" viewBox="0 0 18 18" fill="none" xmlns="http://www.w3.org/2000/svg">
<path d="M3 10.8255H5.0025C5.23522 10.8255 5.42698 11.0173 5.42698 11.25V15.75C5.42698 15.9827 5.23522 16.1745 5.0025 16.1745H2.25C2.01728 16.1745 1.82552 15.9827 1.82552 15.75V12C1.82552 11.3548 2.35478 10.8255 3 10.8255Z" fill="#44C4A1" stroke="#44C4A1" stroke-width="0.651042"/>
<path d="M9.99762 7.5H7.99512C7.17012 7.5 6.49512 8.175 6.49512 9V15.75C6.49512 16.1625 6.83262 16.5 7.24512 16.5H10.7476C11.1601 16.5 11.4976 16.1625 11.4976 15.75V9C11.4976 8.175 10.8301 7.5 9.99762 7.5Z" fill="#44C4A1"/>
<path d="M15.0001 12.75H12.9976C12.5851 12.75 12.2476 13.0875 12.2476 13.5V15.75C12.2476 16.1625 12.5851 16.5 12.9976 16.5H15.7501C16.1626 16.5 16.5001 16.1625 16.5001 15.75V14.25C16.5001 13.425 15.8251 12.75 15.0001 12.75Z" fill="#44C4A1"/>
<path d="M11.2573 3.63749C11.4898 3.40499 11.5798 3.12749 11.5048 2.88749C11.4298 2.64749 11.1973 2.47499 10.8673 2.42249L10.1473 2.30249C10.1173 2.30249 10.0498 2.24999 10.0348 2.21999L9.63733 1.42499C9.33733 0.817493 8.65483 0.817493 8.35483 1.42499L7.95733 2.21999C7.94983 2.24999 7.88233 2.30249 7.85233 2.30249L7.13233 2.42249C6.80233 2.47499 6.57733 2.64749 6.49483 2.88749C6.41983 3.12749 6.50983 3.40499 6.74233 3.63749L7.29733 4.19999C7.32733 4.22249 7.34983 4.31249 7.34233 4.34249L7.18483 5.03249C7.06483 5.54999 7.25983 5.78249 7.38733 5.87249C7.51483 5.96249 7.79233 6.08249 8.24983 5.81249L8.92483 5.41499C8.95483 5.39249 9.05233 5.39249 9.08233 5.41499L9.74983 5.81249C9.95983 5.93999 10.1323 5.97749 10.2673 5.97749C10.4248 5.97749 10.5373 5.91749 10.6048 5.87249C10.7323 5.78249 10.9273 5.54999 10.8073 5.03249L10.6498 4.34249C10.6423 4.30499 10.6648 4.22249 10.6948 4.19999L11.2573 3.63749Z" fill="#44C4A1"/>
</svg>
