<svg width="127" height="172" viewBox="0 0 127 172" fill="none" xmlns="http://www.w3.org/2000/svg">
<path d="M30.6387 0.145509C29.2636 0.356508 28.2304 1.32419 27.903 2.70659C27.7648 3.31048 27.7648 4.64923 27.903 5.18764C28.3323 6.8247 29.5473 7.71962 31.359 7.7269C31.992 7.73417 32.2103 7.69779 32.6468 7.545C34.1165 7.0357 34.9241 5.76971 34.9241 3.96531C34.9241 2.50287 34.393 1.33147 33.4472 0.705746C32.7196 0.218267 31.5918 -0.00728226 30.6387 0.145509ZM32.0211 1.42605C32.3194 1.51336 32.5013 1.62977 32.7778 1.92081C33.2653 2.41556 33.4253 2.89576 33.4253 3.89255C33.4253 5.13671 33.0906 5.86429 32.3049 6.29356C31.7737 6.57732 31.0025 6.59915 30.4714 6.33722C30.0421 6.1335 29.6201 5.66057 29.4455 5.19492C29.2636 4.71471 29.2054 3.6961 29.3145 3.11404C29.4891 2.21911 29.9038 1.70253 30.6533 1.44788C31.1262 1.28053 31.5118 1.27326 32.0211 1.42605Z" fill="white"/>
<path d="M68.1745 0.152798C67.9562 0.189177 67.5706 0.320141 67.3232 0.436554C66.0936 1.00407 65.4169 2.27006 65.4097 3.9726C65.4097 5.60238 66.0572 6.79561 67.2941 7.40677L67.8398 7.67598H68.7929C69.7169 7.67598 69.7533 7.6687 70.2262 7.43588C70.7938 7.1594 71.2812 6.65737 71.5577 6.0753C71.8706 5.39865 71.8706 5.39865 71.1212 5.15855C70.7647 5.04214 70.4591 4.94755 70.4518 4.94755C70.4445 4.94755 70.3863 5.1149 70.3208 5.31862C70.2408 5.55872 70.0735 5.82065 69.8552 6.03892C69.4477 6.4682 68.953 6.60644 68.3418 6.47547C67.3523 6.26447 66.9085 5.47869 66.9085 3.92894C66.9012 2.59747 67.2141 1.86989 67.9344 1.52065C68.3709 1.30237 69.1713 1.28055 69.5278 1.46972C69.8479 1.64434 70.1971 2.02268 70.2917 2.30644C70.3572 2.51016 70.4009 2.55381 70.5318 2.52471C70.6119 2.50288 70.9393 2.43012 71.2449 2.35737L71.8051 2.23368L71.6741 1.89172C71.274 0.836723 70.3718 0.211004 69.1203 0.123694C68.822 0.101867 68.3927 0.116419 68.1745 0.152798Z" fill="white"/>
<path d="M93.8217 0.123693C92.9995 0.232831 92.3738 0.54569 91.8281 1.12775C91.1515 1.84078 90.875 2.6775 90.875 3.98715C90.875 5.23131 91.1515 6.00982 91.8354 6.7374C92.4975 7.43588 93.1742 7.71236 94.2291 7.71236C95.7207 7.71236 96.6884 7.03571 97.1686 5.66786L97.2704 5.39138L96.7102 5.20948C95.8516 4.94028 95.9099 4.92572 95.7134 5.4132C95.517 5.90068 95.3132 6.14806 94.9494 6.32995C94.5784 6.51912 94.2146 6.56278 93.7999 6.46819C92.7522 6.24992 92.2501 5.24586 92.352 3.57242C92.4029 2.76481 92.5339 2.32099 92.8467 1.94264C93.6253 1.00407 95.2259 1.17869 95.7134 2.2555C95.8225 2.49561 95.8808 2.54654 95.9972 2.51743C96.0845 2.49561 96.3901 2.42285 96.6811 2.35737C96.9648 2.29188 97.2049 2.20457 97.2049 2.15364C97.2049 2.10999 97.1104 1.87716 96.994 1.63706C96.4846 0.560242 95.1896 -0.0582013 93.8217 0.123693Z" fill="white"/>
<path d="M13.584 0.451109C13.6641 0.582073 14.2752 1.54976 14.9373 2.59747L16.1524 4.51101V6.0753V7.6396H16.88H17.6076V6.06075V4.48918L18.0005 3.86346C18.2115 3.5215 18.8153 2.56109 19.3392 1.72437L20.2923 0.218283H19.4774H18.6553L17.8622 1.57886C17.4257 2.33554 17.0328 3.00492 16.9818 3.07767C16.9018 3.19409 16.7854 3.03402 16.0069 1.7171L15.1192 0.218283H14.2825H13.4458L13.584 0.451109Z" fill="white"/>
<path d="M21.1001 3.92894V7.6396H23.9013H26.7025V7.02116V6.40272H24.6289H22.5553V5.3841V4.36549H24.4106H26.2659V3.74705V3.1286H24.4106H22.5553V2.29189V1.45517H24.5561H26.557V0.836726V0.218283H23.8285H21.1001V3.92894Z" fill="white"/>
<path d="M38.8529 2.85213C38.8529 5.59511 38.8092 6.02438 38.5473 6.30813C38.3436 6.52641 37.8634 6.59189 37.5214 6.45365C37.2231 6.32269 37.0485 6.04621 36.983 5.55873L36.9394 5.22404L36.641 5.26769C36.4737 5.28952 36.1681 5.3259 35.9644 5.355C35.5278 5.40593 35.5278 5.42049 35.6588 6.05348C35.8189 6.80289 36.1972 7.28309 36.852 7.57412C37.1358 7.69781 37.3541 7.73419 37.8343 7.73419C38.6928 7.73419 39.1439 7.57412 39.6241 7.09392C40.2498 6.47548 40.2571 6.41727 40.2935 3.0704L40.3226 0.218287H39.5877H38.8529V2.85213Z" fill="white"/>
<path d="M41.9814 2.81574C41.9814 5.6533 42.0251 6.05347 42.3671 6.64281C42.7309 7.26126 43.3638 7.60322 44.3534 7.71963C45.6266 7.86515 46.6452 7.58139 47.2127 6.94112C47.7439 6.32995 47.7512 6.2863 47.7875 3.07039L47.8094 0.218277H47.0818H46.3469V2.8885C46.3469 5.34044 46.3324 5.58782 46.2087 5.8643C46.0413 6.23537 45.6921 6.45364 45.1755 6.51912C44.4407 6.60643 43.8149 6.32268 43.5748 5.79154C43.4512 5.51506 43.4366 5.26768 43.4366 2.85212V0.218277H42.709H41.9814V2.81574Z" fill="white"/>
<path d="M51.8042 0.836726V1.45517H52.9319H54.0597V4.54739V7.6396H54.7873H55.5149V4.54739V1.45517H56.6062H57.6976V0.836726V0.218283H54.7509H51.8042V0.836726Z" fill="white"/>
<path d="M58.7158 3.92894V7.6396H61.517H64.3182V7.02116V6.40272H62.2446H60.171V5.3841V4.36549H62.0263H63.8816V3.74705V3.1286H62.0263H60.171V2.29189V1.45517H62.1718H64.1727V0.836726V0.218283H61.4442H58.7158V3.92894Z" fill="white"/>
<path d="M73.1948 3.92894V7.6396H73.9224H74.65V6.00255V4.36549H76.1415H77.6331V6.00255V7.6396H78.3606H79.0882V3.92894V0.218283H78.3606H77.6331V1.70982V3.20136H76.1415H74.65V1.70982V0.218283H73.9224H73.1948V3.92894Z" fill="white"/>
<path d="M80.689 3.92895V7.63961H81.3438H81.9986V5.19494C81.9986 3.65974 82.0277 2.76482 82.0714 2.77937C82.1077 2.78664 82.8062 3.87802 83.6211 5.20221L85.0981 7.60323L85.8402 7.62505L86.5824 7.64688V3.92895V0.218286H85.8912H85.2V2.74299V5.27497L83.6575 2.74299L82.1077 0.218286H81.402H80.689V3.92895Z" fill="white"/>
<path d="M88.1831 3.92894V7.6396H88.9107H89.6383V3.92894V0.218283H88.9107H88.1831V3.92894Z" fill="white"/>
<path d="M100.705 0.37835C100.668 0.472935 100.028 2.10999 99.2859 4.02353C98.5438 5.93706 97.9326 7.53774 97.9326 7.57412C97.9326 7.61778 98.2382 7.6396 98.6747 7.62505L99.4096 7.60322L99.7152 6.76651L100.028 5.92979L101.52 5.90796L103.018 5.89341L103.12 6.08986C103.178 6.20627 103.331 6.59916 103.47 6.96295L103.71 7.6396H104.488H105.267L103.79 3.94349L102.313 0.254661L101.541 0.232834C100.792 0.211006 100.763 0.218282 100.705 0.37835ZM102.073 3.30322C102.356 4.05991 102.589 4.6929 102.589 4.70018C102.589 4.71473 102.116 4.72928 101.534 4.72928C100.952 4.72928 100.479 4.71473 100.479 4.70018C100.479 4.68563 100.69 4.08173 100.952 3.36871C101.214 2.65568 101.447 2.02996 101.469 1.97175C101.483 1.91354 101.512 1.88444 101.527 1.89899C101.541 1.91354 101.789 2.54654 102.073 3.30322Z" fill="white"/>
<path d="M106.227 3.96532V7.6396H108.81H111.393V7.02116V6.40272H109.501H107.609V3.34688V0.291041H106.918H106.227V3.96532Z" fill="white"/>
<path d="M12.5144 11.8159C11.7214 11.9978 11.2703 12.3107 10.9501 12.8855C10.7682 13.2129 10.7319 13.3584 10.7319 13.7877C10.7319 14.2242 10.761 14.3552 10.9574 14.6971C11.3576 15.4029 11.8232 15.6575 13.5185 16.1159C14.0132 16.2469 14.508 16.4142 14.6099 16.4943C15.2792 16.989 14.9591 17.8985 14.0351 18.1168C13.162 18.3278 12.3762 18.0294 12.0488 17.3746C11.9469 17.1709 11.8596 16.9381 11.8596 16.858C11.8596 16.7635 11.8232 16.7344 11.7359 16.7635C11.6632 16.778 11.343 16.8217 11.0156 16.8435L10.4263 16.8944L10.4918 17.2291C10.6809 18.2623 11.4303 19.0408 12.4562 19.2809C12.9364 19.39 14.1733 19.3682 14.6608 19.2445C15.7594 18.9535 16.3997 18.1459 16.3924 17.0472C16.3924 16.6325 16.356 16.4506 16.196 16.1232C15.8686 15.4538 15.3738 15.1337 14.166 14.799C12.3835 14.3115 12.0779 14.1442 12.0779 13.6931C12.0779 13.2056 12.5654 12.9218 13.4021 12.9291C14.1369 12.9291 14.4716 13.1474 14.6972 13.7658L14.7699 13.9696H15.4975H16.2251L16.1814 13.7294C16.0577 13.0164 15.6139 12.3616 15.0391 12.0633C14.4061 11.7432 13.3075 11.634 12.5144 11.8159Z" fill="white"/>
<path d="M85.1416 11.8232C84.2976 12.0124 83.7156 12.4853 83.4827 13.1983C83.3227 13.6785 83.3809 14.3042 83.6283 14.7262C83.9993 15.3592 84.5159 15.6575 85.9129 16.0359C87.1206 16.3633 87.3389 16.4579 87.499 16.698C87.9064 17.3164 87.3462 18.0731 86.4149 18.1677C85.5272 18.2623 84.8069 17.8476 84.5959 17.1345C84.545 16.9526 84.4868 16.7926 84.4722 16.7926C84.3413 16.7635 83.0898 16.9017 83.0898 16.9381C83.0898 16.9672 83.1335 17.1564 83.1917 17.3601C83.4464 18.3278 84.0284 18.9462 84.9161 19.2154C85.3526 19.3464 85.5636 19.3682 86.3494 19.3391C87.1716 19.31 87.3244 19.2882 87.7245 19.1063C88.2047 18.888 88.6558 18.4733 88.8814 18.0367C89.0633 17.6802 89.1069 16.7635 88.9614 16.3342C88.6777 15.5193 88.1174 15.1482 86.4731 14.6971C85.8765 14.5298 85.3235 14.3624 85.2435 14.3188C84.7051 14.0423 84.5887 13.5476 84.9816 13.2129C85.2435 12.9946 85.5854 12.9146 86.153 12.9291C86.7932 12.9437 87.2589 13.2711 87.3607 13.7658L87.4044 13.9696H88.1174H88.8377V13.7658C88.8377 13.1838 88.3721 12.4562 87.7827 12.1142C87.1643 11.7504 86.0511 11.6267 85.1416 11.8232Z" fill="white"/>
<path d="M0.364258 15.5702V19.2809H1.09184H1.81942V15.5702V11.8596H1.09184H0.364258V15.5702Z" fill="white"/>
<path d="M3.27441 15.5702V19.2809H3.96562H4.65682V16.8217C4.66409 14.6171 4.67137 14.3843 4.77323 14.5152C4.83144 14.5953 5.52264 15.7012 6.30115 16.9672L7.72721 19.2809H8.44751H9.16781V15.5702V11.8596H8.51299H7.85817V14.3333C7.85817 15.6939 7.82907 16.8071 7.79996 16.8071C7.77086 16.8071 7.05783 15.6939 6.22111 14.3333L4.70775 11.8596H3.98744H3.27441V15.5702Z" fill="white"/>
<path d="M17.2437 12.4416V13.0237H18.335H19.4264V16.1523V19.2809H20.154H20.8816V16.1523V13.0237H21.9729H23.0643V12.4416V11.8596H20.154H17.2437V12.4416Z" fill="white"/>
<path d="M24.083 15.5702V19.2809H24.8106H25.5382V15.5702V11.8596H24.8106H24.083V15.5702Z" fill="white"/>
<path d="M26.4844 12.4416V13.0237H27.5757H28.6671V16.1523V19.2809H29.3947H30.1223V16.1523V13.0237H31.2136H32.305V12.4416V11.8596H29.3947H26.4844V12.4416Z" fill="white"/>
<path d="M33.396 14.4279C33.396 17.0836 33.4397 17.6366 33.6943 18.1313C33.898 18.5315 34.3055 18.9098 34.7711 19.1281C35.1567 19.31 35.2441 19.3173 36.3063 19.3173C37.3977 19.3173 37.4486 19.31 37.8924 19.1063C38.4454 18.8516 38.8456 18.4223 39.0347 17.8839C39.1584 17.542 39.173 17.2 39.2021 14.6753L39.2239 11.8596H38.4963H37.7615V14.457C37.7615 15.9922 37.7324 17.1709 37.6887 17.331C37.5941 17.6729 37.2231 18.0294 36.8957 18.0949C36.0153 18.2768 35.295 18.0294 35.0039 17.4401C34.8293 17.0909 34.8293 17.0472 34.793 14.4716L34.7566 11.8596H34.0799H33.396V14.4279Z" fill="white"/>
<path d="M40.3809 12.4416V13.0237H41.4722H42.5636V16.1523V19.2809H43.2912H44.0188V16.1523V13.0237H45.1101H46.2015V12.4416V11.8596H43.2912H40.3809V12.4416Z" fill="white"/>
<path d="M47.2202 15.5702V19.2809H50.0214H52.8226V18.6624V18.044H50.749H48.6681L48.6899 17.0036L48.7118 15.9704L50.5525 15.9486L52.386 15.934V15.3519V14.7699H50.5307H48.6681L48.6899 13.9113L48.7118 13.0601L50.698 13.0382L52.6771 13.0237V12.4416V11.8596H49.9486H47.2202V15.5702Z" fill="white"/>
<path d="M57.0425 15.5702V19.2809H57.7701H58.4976V15.5702V11.8596H57.7701H57.0425V15.5702Z" fill="white"/>
<path d="M59.9526 15.5702V19.2809H60.6438H61.335L61.3496 16.8217L61.3714 14.3697L62.8702 16.8071L64.3763 19.2445L65.1112 19.2663L65.846 19.2882V15.5702V11.8596H65.1912H64.5364V14.3333C64.5364 15.6939 64.5073 16.8071 64.4782 16.8071C64.4418 16.8071 63.7288 15.6939 62.8921 14.3333L61.3787 11.8596H60.6657H59.9526V15.5702Z" fill="white"/>
<path d="M69.8481 12.4416V13.0237H70.9395H72.0309V16.1523V19.2809H72.7585H73.486L73.5006 16.1668L73.5224 13.0601L74.5992 13.0382L75.6688 13.0164V12.4416V11.8596H72.7585H69.8481V12.4416Z" fill="white"/>
<path d="M76.6946 15.4756C75.9161 17.4692 75.2686 19.1426 75.254 19.1863C75.2249 19.2591 75.3995 19.2809 75.9816 19.2809H76.7456L77.0584 18.4078L77.3713 17.5347L78.8919 17.5492L80.4126 17.5711L80.5435 17.8985C80.609 18.0804 80.7545 18.466 80.8637 18.7498L81.0674 19.2809H81.8314C82.5298 19.2809 82.5953 19.2663 82.5517 19.1499C82.5226 19.0844 81.8605 17.411 81.0747 15.4393L79.6413 11.8596H78.8701H78.0989L76.6946 15.4756ZM79.4085 14.9227C79.6704 15.6284 79.8887 16.2469 79.8887 16.2905C79.8887 16.3851 77.8515 16.4069 77.8515 16.3124C77.8442 16.1741 78.8337 13.5403 78.8774 13.5912C78.8992 13.6203 79.1393 14.2169 79.4085 14.9227Z" fill="white"/>
<path d="M90.4385 15.5702V19.2809H91.1661H91.8936V17.6438V16.0068H93.3852H94.8767V17.6438V19.2809H95.6043H96.3319V15.5702V11.8596H95.6043H94.8767V13.3147V14.7699H93.3852H91.8936V13.3147V11.8596H91.1661H90.4385V15.5702Z" fill="white"/>
<path d="M98.0054 15.5702V19.2809H98.6966H99.3878V18.1531V17.0327L99.9989 16.3924C100.537 15.8322 100.625 15.7667 100.719 15.8613C100.777 15.9195 101.258 16.7125 101.789 17.622L102.749 19.2809H103.651C104.146 19.2809 104.554 19.2591 104.554 19.2372C104.554 19.2154 103.913 18.2113 103.135 17.0108C102.349 15.8103 101.701 14.799 101.694 14.7699C101.687 14.7335 102.298 14.0714 103.048 13.2856L104.423 11.8596L103.448 11.8668H102.48L100.988 13.5039C100.166 14.3988 99.4751 15.1337 99.446 15.1337C99.4096 15.1337 99.3878 14.3988 99.3878 13.4966V11.8596H98.6966H98.0054V15.5702Z" fill="white"/>
<path d="M105.5 15.5702V19.2809H108.264H111.029V18.6624V18.044H108.956H106.875L106.896 17.0036L106.918 15.9704L108.795 15.9486L110.665 15.934V15.3519V14.7699H108.774H106.875L106.896 13.9113L106.918 13.0601L108.905 13.0382L110.884 13.0237V12.4416V11.8596H108.192H105.5V15.5702Z" fill="white"/>
<path d="M112.412 15.5702V19.2809H113.066H113.721V16.8435C113.721 15.5047 113.743 14.4061 113.779 14.4061C113.809 14.4061 114.5 15.5047 115.322 16.8435L116.813 19.2736L117.527 19.2809H118.232V15.5702V11.8596H117.577H116.923V14.3406C116.923 15.7012 116.894 16.7998 116.864 16.778C116.835 16.7635 116.137 15.643 115.322 14.3042L113.83 11.8668L113.125 11.8596H112.412V15.5702Z" fill="white"/>
<path d="M119.396 12.4416V13.0237H120.487H121.579V16.1523V19.2809H122.306H123.034V16.1523V13.0237H124.125H125.217V12.4416V11.8596H122.306H119.396V12.4416Z" fill="white"/>
<path d="M17.8041 23.6172C17.7969 23.6245 13.9261 23.6463 9.20413 23.6754C4.48213 23.6973 0.502268 23.7191 0.364028 23.7191H0.109375L0.123927 60.8475C0.138478 94.5054 0.15303 99.2128 0.254891 100.77C0.349477 102.24 0.414959 103.004 0.502268 103.782C0.545923 104.131 0.575026 104.444 0.567751 104.473C0.560475 104.495 0.575026 104.648 0.60413 104.808C0.633233 104.968 0.669612 105.31 0.691439 105.565C0.713267 105.819 0.74237 106.052 0.756922 106.074C0.778749 106.096 0.807852 106.329 0.836955 106.591C0.924265 107.398 0.931541 107.442 0.975196 107.58C0.997023 107.66 1.0334 107.9 1.06251 108.118C1.11344 108.613 1.12799 108.686 1.19347 108.955C1.2153 109.072 1.25168 109.268 1.26623 109.392C1.28806 109.508 1.40447 110.119 1.52816 110.738C1.65185 111.356 1.76826 111.953 1.78281 112.062C1.79736 112.171 1.82646 112.287 1.84829 112.324C1.87012 112.36 1.9065 112.498 1.92105 112.637C1.94288 112.775 2.02291 113.124 2.10295 113.422C2.18298 113.721 2.23391 113.99 2.21208 114.019C2.19753 114.048 2.21936 114.099 2.26301 114.121C2.29939 114.15 2.32122 114.216 2.29939 114.274C2.27756 114.325 2.29212 114.39 2.33577 114.419C2.37943 114.441 2.39398 114.507 2.37215 114.565C2.35032 114.616 2.36487 114.681 2.40853 114.71C2.45218 114.732 2.46674 114.798 2.44491 114.856C2.42308 114.907 2.43763 114.972 2.48129 115.001C2.52494 115.023 2.53949 115.089 2.51767 115.14C2.50311 115.191 2.51039 115.256 2.54677 115.292C2.58315 115.329 2.6268 115.474 2.65591 115.613C2.69956 115.889 2.72139 115.962 2.78687 116.122C2.81597 116.18 2.84508 116.296 2.85963 116.376C2.87418 116.457 2.91056 116.573 2.93239 116.631C2.99059 116.784 3.57993 118.741 3.60176 118.879C3.61631 118.945 3.63086 119.003 3.63814 119.01C3.65269 119.025 3.66724 119.061 3.67452 119.105C3.68179 119.141 3.70362 119.192 3.7109 119.214C3.71817 119.236 3.74 119.28 3.74728 119.323C3.75455 119.36 3.77638 119.41 3.78366 119.432C3.79093 119.454 3.81276 119.498 3.82003 119.541C3.82731 119.578 3.84914 119.629 3.85641 119.651C3.86369 119.672 3.88552 119.716 3.89279 119.76C3.90007 119.796 3.9219 119.847 3.92917 119.869C3.93645 119.891 3.951 119.927 3.95828 119.956C3.96555 119.993 3.98738 120.043 4.00921 120.087C4.03831 120.124 4.11107 120.342 4.17655 120.56C4.24931 120.778 4.32207 121.011 4.34389 121.069C4.373 121.128 4.39482 121.193 4.4021 121.215C4.40937 121.237 4.45303 121.346 4.49668 121.455C4.54762 121.571 4.58399 121.702 4.58399 121.753C4.58399 121.797 4.6131 121.87 4.6422 121.906C4.69313 121.964 5.03509 122.823 5.0642 122.961C5.0642 122.983 5.14423 123.158 5.23154 123.361C5.31885 123.558 5.39888 123.783 5.40616 123.856C5.41344 123.921 5.43526 123.98 5.45709 123.98C5.50802 123.98 5.7845 124.722 5.76267 124.795C5.7554 124.831 5.7845 124.853 5.82088 124.853C5.85726 124.853 5.88636 124.875 5.87909 124.904C5.87181 124.94 5.90091 125.035 5.95185 125.115C5.9955 125.202 6.01005 125.289 5.98822 125.318C5.9664 125.34 5.97367 125.362 6.01005 125.362C6.06826 125.362 6.25743 125.762 6.29381 125.944C6.30108 125.966 6.38839 126.155 6.49753 126.359C6.60667 126.57 6.69398 126.766 6.69398 126.795C6.69398 126.832 6.82494 127.101 6.98501 127.407C7.14508 127.712 7.25421 127.981 7.22511 128.01C7.20328 128.032 7.21783 128.054 7.26877 128.054C7.3197 128.054 7.33425 128.083 7.31242 128.127C7.29059 128.163 7.30514 128.2 7.34152 128.2C7.38518 128.2 7.42156 128.229 7.42156 128.265C7.42156 128.352 7.95997 129.458 8.18552 129.837C8.2801 129.989 8.33831 130.15 8.32376 130.179C8.30193 130.208 8.31648 130.237 8.34558 130.237C8.41834 130.237 8.76758 130.892 8.74575 130.979C8.73848 131.015 8.76031 131.037 8.78941 131.037C8.82579 131.037 8.9131 131.175 8.99313 131.343C9.06589 131.517 9.16775 131.699 9.21868 131.75C9.26234 131.801 9.34237 131.954 9.3933 132.092C9.44423 132.23 9.50971 132.347 9.53154 132.347C9.58247 132.347 9.77164 132.725 9.74981 132.776C9.74254 132.791 9.76437 132.827 9.80075 132.849C9.91716 132.929 10.3246 133.642 10.2809 133.686C10.2518 133.707 10.2737 133.729 10.3173 133.729C10.3683 133.729 10.4046 133.78 10.4046 133.838C10.4046 133.897 10.4265 133.948 10.4628 133.948C10.4919 133.948 10.5793 134.071 10.6593 134.224C10.7393 134.37 10.8194 134.508 10.8412 134.53C10.9358 134.61 11.2414 135.148 11.2195 135.199C11.2123 135.235 11.2414 135.257 11.2777 135.257C11.3214 135.257 11.3505 135.301 11.3505 135.359C11.3505 135.417 11.3796 135.475 11.4087 135.49C11.4596 135.505 13.1985 138.037 13.4969 138.517C13.5405 138.582 13.6424 138.713 13.7297 138.815C13.817 138.91 13.8752 139.019 13.8606 139.048C13.8388 139.077 13.8752 139.113 13.9334 139.142C13.9916 139.164 14.0425 139.23 14.0425 139.288C14.0425 139.339 14.0935 139.404 14.1517 139.433C14.2099 139.455 14.2608 139.521 14.2608 139.579C14.2608 139.63 14.3117 139.695 14.37 139.725C14.4282 139.746 14.4791 139.812 14.4791 139.877C14.4791 139.936 14.5155 139.986 14.5518 139.986C14.5955 139.986 14.6537 140.045 14.6755 140.11C14.7046 140.183 14.7628 140.27 14.8138 140.314C14.9302 140.408 16.298 142.162 16.298 142.213C16.298 142.242 16.3781 142.322 16.4799 142.402C16.5818 142.482 16.6618 142.569 16.6618 142.598C16.6618 142.628 16.8437 142.846 17.062 143.086C17.2803 143.319 17.4622 143.544 17.4622 143.573C17.4622 143.61 17.564 143.719 17.6804 143.821C17.8041 143.915 17.8987 144.025 17.8987 144.061C17.8987 144.09 18.037 144.257 18.2043 144.439C18.3789 144.614 18.67 144.927 18.8664 145.123C19.0556 145.327 19.2084 145.509 19.2084 145.531C19.2084 145.552 19.4703 145.829 19.7904 146.142C20.1106 146.447 20.3725 146.731 20.3725 146.76C20.3725 146.818 21.3547 147.779 22.0023 148.361C22.1987 148.536 22.4752 148.79 22.6134 148.921C22.7517 149.052 22.9045 149.183 22.9554 149.212C23.05 149.263 24.054 150.158 24.5051 150.595C24.6434 150.726 24.7962 150.857 24.8471 150.886C24.9417 150.937 25.9458 151.831 26.3969 152.268C26.5351 152.399 26.6879 152.53 26.7388 152.559C26.7897 152.588 27.0881 152.843 27.4009 153.134C27.932 153.614 28.5068 154.116 28.8415 154.385C28.9143 154.451 29.038 154.56 29.118 154.633C29.1908 154.698 29.2635 154.756 29.2853 154.756C29.3436 154.756 30.4495 155.644 30.4713 155.709C30.4859 155.746 30.5295 155.775 30.5659 155.775C30.6459 155.775 32.1084 156.866 32.1447 156.954C32.1593 156.983 32.2175 157.012 32.2757 157.012C32.3339 157.012 32.3994 157.063 32.4212 157.121C32.4503 157.179 32.4867 157.216 32.5158 157.194C32.5449 157.179 32.654 157.245 32.7632 157.347C32.865 157.441 32.9887 157.521 33.0324 157.521C33.0688 157.521 33.1051 157.55 33.1051 157.594C33.1051 157.63 33.2216 157.718 33.3598 157.783C33.498 157.849 33.6144 157.929 33.6144 157.965C33.6144 158.001 33.6654 158.03 33.7236 158.03C33.7818 158.03 33.8327 158.06 33.8327 158.103C33.8327 158.14 33.8618 158.176 33.9055 158.176C33.9782 158.176 34.7058 158.663 34.7786 158.765C34.8004 158.787 34.8804 158.831 34.9605 158.86C35.0405 158.882 35.1933 158.984 35.2952 159.078C35.397 159.173 35.5498 159.275 35.6371 159.296C35.7244 159.326 35.7972 159.384 35.7972 159.42C35.7972 159.457 35.8336 159.486 35.8772 159.486C35.9282 159.486 36.1246 159.602 36.3138 159.74C36.5102 159.879 36.7067 159.995 36.743 159.995C36.7867 159.995 36.8158 160.017 36.8158 160.046C36.8158 160.082 36.9468 160.17 37.1068 160.242C37.2669 160.315 37.4561 160.439 37.5361 160.511C37.6161 160.592 37.7035 160.65 37.7326 160.65C37.8126 160.65 38.8894 161.326 38.9112 161.392C38.9258 161.421 38.984 161.45 39.0349 161.45C39.0931 161.45 39.1804 161.494 39.2314 161.545C39.2823 161.588 39.5151 161.727 39.748 161.85C39.9735 161.967 40.1627 162.083 40.1627 162.105C40.1627 162.134 40.2791 162.192 40.4173 162.243C40.5556 162.294 40.672 162.36 40.672 162.389C40.672 162.418 40.7884 162.483 40.9266 162.534C41.0649 162.585 41.1813 162.651 41.1813 162.68C41.1813 162.709 41.2977 162.774 41.4359 162.825C41.5742 162.876 41.6906 162.942 41.6906 162.971C41.6906 163 41.807 163.065 41.9452 163.116C42.0835 163.167 42.1999 163.24 42.1999 163.276C42.1999 163.313 42.2217 163.335 42.2581 163.327C42.3309 163.305 42.8038 163.56 42.8693 163.662C42.8984 163.706 42.9275 163.72 42.9275 163.691C42.9275 163.662 43.1676 163.771 43.4586 163.931C43.7424 164.091 44.3099 164.389 44.71 164.593C45.1102 164.797 45.4522 164.986 45.4595 165.022C45.474 165.059 45.5177 165.073 45.554 165.044C45.5904 165.022 45.6195 165.044 45.6195 165.088C45.6195 165.132 45.6486 165.153 45.6777 165.132C45.7141 165.11 45.8524 165.168 45.9906 165.255C46.1288 165.335 46.2525 165.408 46.2743 165.415C46.3617 165.423 47.1838 165.859 47.2057 165.91C47.2202 165.939 47.2566 165.947 47.293 165.925C47.3293 165.903 47.4094 165.939 47.4676 166.005C47.5331 166.063 47.584 166.099 47.584 166.07C47.584 166.048 47.8677 166.165 48.2243 166.347C48.5735 166.521 49.0683 166.761 49.3302 166.878C49.5921 167.002 49.9996 167.191 50.2397 167.307C50.4798 167.424 50.7126 167.518 50.7562 167.533C50.8072 167.54 51.0691 167.649 51.3383 167.773C51.6148 167.904 51.9422 168.049 52.0586 168.1C52.1823 168.151 52.3933 168.246 52.5315 168.304C53.0772 168.544 53.2227 168.602 53.2955 168.617C53.3392 168.631 53.4992 168.697 53.6593 168.762C53.8194 168.835 53.9867 168.9 54.0231 168.908C54.0667 168.922 54.2195 168.981 54.3723 169.039C54.5178 169.104 54.6706 169.162 54.6997 169.162C54.7288 169.17 54.787 169.206 54.8307 169.242C54.8816 169.279 54.9908 169.33 55.0781 169.344C55.3109 169.388 57.4282 170.188 57.5373 170.276C57.5809 170.312 57.6246 170.319 57.6246 170.297C57.6246 170.268 57.6974 170.29 57.7919 170.341C57.8793 170.385 58.0102 170.436 58.083 170.45C58.1557 170.465 58.2867 170.508 58.374 170.559C58.4613 170.61 58.5923 170.654 58.665 170.669C58.7378 170.683 58.8688 170.727 58.9561 170.778C59.0434 170.829 59.1598 170.872 59.2107 170.88C59.2689 170.887 59.3635 170.923 59.429 170.952C59.4945 170.981 59.5891 171.01 59.6254 171.018C59.7273 171.047 61.0588 171.483 61.1897 171.542C61.248 171.563 61.3644 171.6 61.4444 171.614C61.5244 171.629 61.6408 171.658 61.6991 171.68C61.7573 171.709 61.9028 171.738 62.0119 171.753C62.1283 171.767 62.2738 171.811 62.3393 171.847C62.5649 171.956 63.4452 171.876 64.1583 171.68C64.362 171.622 64.5366 171.593 64.5366 171.614C64.5366 171.636 64.5803 171.622 64.6312 171.578C64.6749 171.542 64.8349 171.483 64.9732 171.447C65.286 171.374 65.2787 171.382 65.4097 171.323C65.7007 171.2 66.1373 171.069 66.1373 171.105C66.1373 171.127 66.1809 171.112 66.2319 171.076C66.3119 171.01 66.7412 170.85 66.9595 170.807C67.0104 170.792 67.1486 170.741 67.265 170.698C67.3887 170.647 67.5197 170.596 67.5561 170.588C67.5997 170.581 67.7598 170.516 67.9199 170.443C68.0727 170.377 68.2545 170.312 68.32 170.297C68.3782 170.283 68.4874 170.254 68.5601 170.232C68.7566 170.152 68.8657 170.123 68.9094 170.137C68.9312 170.137 68.9967 170.108 69.0549 170.065C69.1495 169.985 70.7938 169.315 70.9757 169.279C71.0194 169.272 71.1212 169.221 71.2158 169.177C71.3031 169.126 71.3759 169.104 71.3759 169.126C71.3759 169.148 71.4559 169.111 71.5505 169.046C71.6524 168.988 71.7615 168.93 71.7906 168.93C71.8197 168.922 71.9652 168.871 72.1034 168.813C72.2417 168.755 72.3945 168.704 72.4309 168.697C72.4745 168.689 72.54 168.66 72.5837 168.631C72.7874 168.508 74.2134 167.94 74.2134 167.984C74.2134 168.013 74.2425 167.998 74.2716 167.962C74.3444 167.853 75.2102 167.489 75.2611 167.54C75.283 167.569 75.3048 167.554 75.3048 167.518C75.3048 167.445 75.8068 167.227 75.9087 167.256C75.9378 167.263 75.9596 167.234 75.9596 167.191C75.9596 167.154 75.9887 167.132 76.0251 167.154C76.0615 167.183 76.1051 167.176 76.1197 167.14C76.1488 167.067 77.8586 166.281 77.9386 166.303C77.9678 166.318 77.9968 166.288 77.9968 166.245C77.9968 166.208 78.0332 166.194 78.0696 166.216C78.1133 166.238 78.1424 166.223 78.1424 166.172C78.1424 166.121 78.1642 166.099 78.186 166.128C78.2078 166.15 78.2661 166.136 78.317 166.099C78.3606 166.063 78.8918 165.794 79.4884 165.503C80.0923 165.204 80.6889 164.913 80.8126 164.848C80.9436 164.775 81.0745 164.724 81.0963 164.731C81.1255 164.731 81.1691 164.71 81.1909 164.666C81.2128 164.63 81.6566 164.382 82.1659 164.12C82.6825 163.851 83.1699 163.589 83.25 163.531C83.3373 163.465 83.4319 163.436 83.4683 163.458C83.4974 163.48 83.5265 163.465 83.5265 163.429C83.5265 163.364 84.0358 163.087 84.1304 163.109C84.1595 163.116 84.1813 163.094 84.1813 163.065C84.1813 163.036 84.3705 162.913 84.6033 162.796C84.8288 162.672 85.0326 162.563 85.0544 162.534C85.1271 162.461 86.284 161.814 86.3568 161.814C86.3931 161.814 86.4368 161.785 86.4513 161.756C86.4804 161.676 87.3463 161.159 87.4481 161.159C87.4918 161.159 87.5282 161.13 87.5282 161.086C87.5282 161.05 87.6082 160.999 87.7101 160.97C87.8119 160.948 87.8919 160.897 87.8919 160.861C87.8919 160.824 87.9356 160.795 87.9938 160.795C88.052 160.795 88.1102 160.773 88.1248 160.737C88.1611 160.657 88.8742 160.213 88.9688 160.213C89.0197 160.213 89.0561 160.184 89.0561 160.155C89.0561 160.089 89.5072 159.813 89.5872 159.835C89.6163 159.842 89.6381 159.82 89.6381 159.784C89.6381 159.718 90.3366 159.267 90.4385 159.267C90.4749 159.267 90.5112 159.238 90.5258 159.209C90.5549 159.122 91.4353 158.54 91.5226 158.54C91.5662 158.54 91.6026 158.518 91.6026 158.482C91.6026 158.452 91.7554 158.336 91.9518 158.212C92.141 158.096 92.3084 157.98 92.3302 157.958C92.4248 157.849 93.1232 157.376 93.1887 157.376C93.2324 157.376 93.276 157.347 93.2906 157.317C93.327 157.23 94.6293 156.284 94.7166 156.284C94.753 156.284 94.804 156.233 94.8331 156.175C94.8549 156.117 94.9204 156.066 94.9859 156.066C95.0441 156.066 95.095 156.037 95.095 156.008C95.095 155.95 95.7935 155.404 95.8589 155.411C95.8881 155.418 95.9681 155.346 96.0408 155.251C96.1209 155.157 96.1791 155.113 96.1864 155.149C96.1864 155.193 96.23 155.171 96.2809 155.106C96.3683 154.989 97.8307 153.81 97.8889 153.81C97.9035 153.81 98.0417 153.694 98.1945 153.549C98.3545 153.403 98.5583 153.236 98.6601 153.17C98.762 153.105 98.8857 152.988 98.9366 152.923C98.9875 152.85 99.0821 152.792 99.1403 152.792C99.1985 152.792 99.2422 152.763 99.2422 152.734C99.2422 152.675 100.435 151.628 100.508 151.62C100.53 151.62 100.697 151.468 100.894 151.279C101.09 151.089 101.512 150.689 101.847 150.391C102.174 150.093 103.047 149.241 103.782 148.499C105.085 147.197 105.47 146.789 107.391 144.716C107.893 144.177 108.402 143.639 108.519 143.508C108.643 143.384 108.883 143.1 109.057 142.889C109.392 142.489 109.596 142.257 109.909 141.915C110.003 141.813 110.083 141.696 110.083 141.66C110.083 141.624 110.149 141.558 110.229 141.514C110.309 141.471 110.374 141.398 110.374 141.354C110.374 141.311 110.425 141.223 110.483 141.158C110.825 140.78 110.883 140.707 110.883 140.656C110.883 140.627 110.993 140.474 111.131 140.328C111.262 140.183 111.364 140.059 111.342 140.059C111.298 140.059 111.997 139.157 112.062 139.128C112.091 139.113 112.12 139.062 112.12 139.011C112.12 138.968 112.222 138.822 112.339 138.691C112.462 138.56 112.557 138.429 112.557 138.408C112.557 138.342 113.525 136.967 113.59 136.945C113.619 136.931 113.648 136.872 113.648 136.814C113.648 136.756 113.685 136.712 113.721 136.712C113.765 136.712 113.794 136.669 113.794 136.618C113.794 136.567 113.852 136.458 113.917 136.378C113.99 136.305 114.092 136.152 114.15 136.043C114.209 135.934 114.318 135.774 114.39 135.694C114.463 135.614 114.507 135.548 114.492 135.548C114.449 135.548 115.089 134.53 115.169 134.457C115.191 134.435 115.293 134.26 115.394 134.071C115.496 133.875 115.635 133.657 115.707 133.576C115.78 133.504 115.816 133.438 115.795 133.438C115.758 133.438 116.188 132.711 116.26 132.638C116.289 132.616 116.362 132.485 116.435 132.347C116.5 132.209 116.66 131.925 116.777 131.728C116.893 131.525 117.024 131.277 117.068 131.168C117.119 131.052 117.184 130.964 117.228 130.964C117.264 130.964 117.279 130.935 117.257 130.899C117.235 130.863 117.272 130.761 117.344 130.666C117.417 130.572 117.534 130.353 117.606 130.179C117.686 130.011 117.774 129.873 117.81 129.873C117.846 129.873 117.854 129.837 117.832 129.8C117.81 129.757 117.825 129.728 117.861 129.728C117.905 129.728 117.934 129.706 117.926 129.669C117.897 129.568 118.021 129.291 118.094 129.291C118.137 129.291 118.145 129.255 118.123 129.218C118.101 129.175 118.108 129.146 118.145 129.146C118.181 129.146 118.268 128.993 118.341 128.796C118.414 128.607 118.661 128.061 118.901 127.581C119.534 126.286 119.651 126.046 119.942 125.326C120.095 124.962 120.247 124.605 120.291 124.525C120.335 124.445 120.378 124.343 120.386 124.307C120.393 124.263 120.466 124.082 120.553 123.885C120.633 123.696 120.699 123.536 120.691 123.521C120.684 123.514 120.728 123.427 120.779 123.325C120.837 123.223 120.888 123.077 120.902 122.997C120.917 122.925 120.953 122.837 120.982 122.816C121.011 122.794 121.048 122.714 121.062 122.634C121.07 122.554 121.121 122.423 121.164 122.343C121.208 122.263 121.252 122.146 121.266 122.088C121.273 122.022 121.339 121.841 121.404 121.688C121.477 121.528 121.535 121.382 121.543 121.36C121.55 121.339 121.572 121.273 121.601 121.215C121.623 121.157 121.695 120.924 121.768 120.706C121.834 120.487 121.921 120.262 121.965 120.211C122.001 120.167 122.015 120.124 121.994 120.124C121.957 120.124 122.088 119.687 122.212 119.396C122.234 119.338 122.263 119.265 122.27 119.229C122.285 119.199 122.299 119.163 122.306 119.141C122.314 119.119 122.336 119.069 122.343 119.032C122.35 118.988 122.372 118.945 122.379 118.923C122.387 118.901 122.408 118.85 122.416 118.814C122.423 118.77 122.437 118.734 122.452 118.719C122.459 118.712 122.474 118.654 122.488 118.596C122.532 118.377 122.765 117.613 122.801 117.541C122.83 117.497 122.859 117.417 122.874 117.359C122.881 117.3 122.903 117.213 122.918 117.177C122.925 117.133 122.961 116.988 122.99 116.849C123.027 116.711 123.07 116.558 123.092 116.522C123.143 116.442 123.143 116.427 123.216 116.093C123.238 115.976 123.274 115.853 123.296 115.816C123.332 115.758 123.354 115.685 123.434 115.307C123.551 114.725 123.645 114.405 123.696 114.332C123.733 114.288 123.747 114.237 123.725 114.216C123.703 114.201 123.725 114.07 123.769 113.932C123.871 113.597 123.907 113.43 123.951 113.175C123.973 113.051 124.024 112.826 124.067 112.666C124.111 112.506 124.155 112.309 124.169 112.229C124.176 112.149 124.22 111.938 124.271 111.756C124.315 111.574 124.366 111.298 124.387 111.138C124.409 110.985 124.438 110.832 124.46 110.803C124.475 110.774 124.504 110.629 124.526 110.476C124.547 110.316 124.598 110.025 124.642 109.828C124.686 109.625 124.737 109.363 124.751 109.246C124.773 109.122 124.802 108.962 124.817 108.882C124.831 108.802 124.86 108.57 124.882 108.373C124.911 108.169 124.948 107.929 124.969 107.827C124.991 107.726 125.02 107.565 125.035 107.464C125.049 107.362 125.079 107.151 125.108 106.991C125.13 106.831 125.166 106.554 125.188 106.372C125.21 106.19 125.239 105.943 125.253 105.827C125.304 105.426 125.362 104.888 125.406 104.481C125.421 104.262 125.457 103.935 125.471 103.753C125.61 102.414 125.697 101.032 125.763 99.3002C125.901 95.6695 125.915 23.9592 125.784 23.821C125.733 23.7773 117.344 23.7191 104.663 23.6754C93.0578 23.6391 17.8405 23.5881 17.8041 23.6172ZM65.4461 34.7056C71.7033 35.1639 77.8222 37.4704 83.0608 41.3629C87.048 44.3242 90.6859 48.6606 92.9777 53.1716C94.884 56.9332 95.9681 60.7384 96.4119 65.2276C96.5283 66.3553 96.5283 69.6949 96.4119 70.8663C95.9754 75.4719 94.8549 79.4299 92.8831 83.3807C89.6745 89.7907 84.7051 94.8619 78.4698 98.0851C71.3322 101.774 62.5576 102.763 54.6779 100.77C51.1273 99.8677 47.8241 98.4271 44.761 96.4262C37.7035 91.8279 32.6031 84.7049 30.4859 76.5123C28.6742 69.4985 29.1617 62.4191 31.941 55.4416C33.3598 51.8765 36.1901 47.5401 39.0131 44.637C44.1207 39.3694 51.1419 36.0079 59.3344 34.9238C61.4298 34.6401 63.5398 34.5673 65.4461 34.7056ZM48.1952 123.449C48.3698 123.725 48.6826 124.285 48.8936 124.707C49.3229 125.566 49.7595 126.315 50.0068 126.621L50.1742 126.825L51.1128 124.889L52.0513 122.961H53.7102C54.6197 122.961 55.3691 122.99 55.3691 123.019C55.3691 123.187 54.1831 125.435 53.3246 126.89C52.8007 127.792 52.226 128.825 52.0513 129.182C51.5493 130.23 51.5129 130.462 51.5129 132.456C51.5129 133.416 51.4911 134.275 51.4693 134.362C51.4256 134.53 51.4111 134.53 50.0214 134.53H48.6244L48.5735 134.195C48.5517 134.006 48.5298 133.125 48.5298 132.238C48.5298 129.989 48.5517 130.04 46.5508 126.57C45.4667 124.685 44.8774 123.543 44.7828 123.158L44.7319 122.961H46.3035H47.875L48.1952 123.449ZM62.2302 123.012L65.1914 123.056V124.263C65.1914 124.926 65.1696 125.544 65.1478 125.631C65.1041 125.799 65.0896 125.799 63.729 125.799H62.3539V130.157V134.508L61.91 134.559C61.6627 134.581 60.9715 134.602 60.3749 134.602H59.2835L59.3417 130.2L59.3926 125.799H57.9593H56.5332V124.431C56.5332 123.674 56.5551 123.034 56.5842 123.012C56.6424 122.947 58.4686 122.947 62.2302 123.012ZM79.5102 123.077L81.3437 123.121V124.416C81.3437 125.697 81.3437 125.711 81.1837 125.755C81.0891 125.777 80.4342 125.799 79.7285 125.799H78.4334V130.186V134.581L77.1092 134.551C76.3743 134.537 75.705 134.508 75.6177 134.486L75.4503 134.457V130.128V125.799H74.6718C74.2353 125.799 73.6168 125.777 73.2894 125.748L72.6855 125.704V124.351V122.997L75.1811 123.012C76.549 123.027 78.4989 123.056 79.5102 123.077ZM70.5028 128.825V134.624L70.1244 134.573C69.9134 134.551 69.2368 134.53 68.6329 134.53H67.5197V131.197C67.5197 129.364 67.5415 126.774 67.5706 125.449L67.6143 123.034H69.0622H70.5028V128.825Z" fill="white"/>
<path d="M60.7894 44.0914C59.8581 44.1496 59.4725 44.2078 59.407 44.3096C59.327 44.4406 60.1128 48.4932 60.5202 50.0575L60.7167 50.8215L62.0263 51.258C64.0563 51.9347 65.7079 52.7932 67.3668 54.0447C69.8333 55.8927 72.1179 58.7739 73.2311 61.4369C73.7258 62.6228 74.1769 64.2744 74.6499 66.6755L74.7372 67.1047L75.6612 67.0611C76.1632 67.032 77.3565 67.0101 78.3096 67.0101H80.0339V66.6245C80.0339 65.5841 79.6993 63.9616 79.2045 62.6083C78.8043 61.5242 77.6475 59.2323 76.9927 58.2428C76.0395 56.8095 74.6571 55.2888 73.2675 54.1611C72.3653 53.4335 71.4558 52.8514 69.9788 52.0875C69.2076 51.6873 68.5164 51.3017 68.4509 51.2362C68.3272 51.1198 68.3708 50.9524 69.1202 48.1367C69.5641 46.4997 69.9133 45.1536 69.906 45.1391C69.8915 45.1318 69.3312 45.0081 68.6473 44.8626C67.9707 44.7244 66.9521 44.5134 66.3918 44.3897C64.7184 44.0332 63.1541 43.9531 60.7894 44.0914Z" fill="white"/>
<path d="M55.3836 45.1464C53.4483 45.6484 50.5234 47.169 48.2824 48.8352C45.976 50.5523 43.3058 53.4844 42.0034 55.7254C41.6178 56.3875 41.0794 57.5443 41.1303 57.6025C41.1521 57.6171 41.4868 57.2751 41.8797 56.8459C43.7278 54.8232 44.4263 54.1829 45.6268 53.3826C47.4384 52.1893 49.6066 51.2362 51.622 50.7633C53.0335 50.4286 53.7902 50.3413 55.6746 50.2976C57.4645 50.254 57.479 50.254 57.4427 50.1012C57.4208 50.0211 57.2098 48.9007 56.9625 47.6201C56.7224 46.3396 56.5041 45.2191 56.4823 45.1245C56.4313 44.9208 56.2567 44.9208 55.3836 45.1464Z" fill="white"/>
<path d="M72.7002 47.1254C72.2419 47.853 71.7107 48.8352 71.4051 49.5337L71.165 50.0866L71.8708 50.4722C72.6639 50.9088 73.5661 51.5418 74.5192 52.3203C75.305 52.9678 77.0584 54.7504 77.7351 55.5871C78.8919 57.0277 80.0415 58.9704 80.6381 60.4983C81.0165 61.4733 81.242 62.3682 81.7368 64.8274L82.1806 67.0465L84.2542 67.0174C85.3965 67.0101 86.3424 66.981 86.3642 66.9592C86.386 66.9374 86.4006 66.4426 86.3933 65.8606C86.3787 63.736 85.8258 61.6188 84.5816 58.934C84.2688 58.2574 82.217 54.2848 82.1078 54.1465C82.1006 54.1392 81.9187 54.1902 81.715 54.2775C81.5112 54.3575 81.1984 54.423 81.0238 54.423C80.7109 54.423 80.7036 54.4157 80.6309 54.1247C80.5435 53.7827 80.5945 53.5863 80.8855 53.1643C81.0747 52.8951 81.0747 52.8878 80.9292 52.7277C79.9979 51.6727 79.6923 51.3453 79.3867 51.0907L79.0302 50.7924L78.6664 51.0616C78.4699 51.2071 78.0843 51.52 77.8078 51.7528C77.5314 51.9856 77.2185 52.2257 77.1166 52.2766C76.942 52.3712 76.9056 52.3567 76.5782 52.0729L76.229 51.7601L76.8474 50.6032C77.5605 49.2572 77.5823 49.4464 76.651 48.6969C75.8798 48.0639 74.832 47.38 74.0317 46.9799C73.0349 46.4851 73.1222 46.4705 72.7002 47.1254Z" fill="white"/>
<path d="M54.5468 53.1934C52.6987 53.3316 51.0325 53.7973 49.1845 54.6849C47.4747 55.5144 46.0341 56.5257 45.4957 57.2751L45.2628 57.6025L45.8231 57.9445C47.7657 59.1159 47.7657 59.1159 47.7875 59.3415C47.8021 59.4797 47.7512 59.6325 47.6566 59.7562C47.431 60.0399 47.0963 60.0108 46.1068 59.647C45.11 59.2832 44.3752 59.0795 44.0114 59.0795C43.7786 59.0795 43.6985 59.1232 43.4512 59.4215C42.0615 61.0949 40.7227 64.2672 40.4171 66.6391L40.3662 67.032L44.608 66.9883L48.8571 66.9447L49.1845 66.559C49.9121 65.6932 50.7415 64.9365 51.2726 64.6601C52.8733 63.8233 55.2962 63.8452 56.8677 64.7183C57.3188 64.9729 58.2356 65.7442 58.9268 66.4499L59.3197 66.8574L59.6544 66.3044C59.8363 66.0061 60.0618 65.6423 60.1418 65.5041C60.3819 65.1112 60.4038 64.7765 60.251 63.9034C59.538 59.909 59.5161 59.8144 59.2178 59.6616C59.1014 59.5961 58.8395 59.5816 58.3593 59.6179C57.9737 59.6398 57.2752 59.6834 56.8095 59.7052L55.951 59.7562V59.276C55.951 58.5775 56.1038 58.432 57.1515 58.1337C57.9664 57.9008 58.5412 57.6389 58.7667 57.3915C58.8759 57.2678 58.8831 57.1878 58.8031 56.5475C58.6503 55.3325 58.2356 53.6299 58.0028 53.288C57.93 53.1788 55.6308 53.1134 54.5468 53.1934Z" fill="white"/>
<path d="M61.4082 54.2338C61.4082 54.3939 61.9757 57.0568 62.0194 57.1005C62.0412 57.115 62.274 57.1587 62.536 57.1805C63.1981 57.2533 63.4018 57.4134 63.4309 57.9008C63.4527 58.221 63.4309 58.2865 63.2854 58.3738C63.1908 58.4392 62.9434 58.5047 62.7397 58.5338C62.3904 58.5775 62.3541 58.5993 62.3541 58.7667C62.3541 59.4215 63.118 63.4159 63.3872 64.1799C63.5546 64.6382 63.5618 64.6455 64.0784 64.9074C64.7915 65.2712 65.1261 65.5477 65.3735 66.0061C65.4827 66.2171 65.6791 66.5445 65.8028 66.7337L66.0283 67.0829H68.8368C71.3397 67.0829 71.6598 67.0683 71.6962 66.9665C71.8417 66.5881 71.6234 65.1112 71.2596 64.0343C69.9136 60.0035 65.8901 55.6381 62.4268 54.4376C61.5464 54.132 61.4082 54.1101 61.4082 54.2338Z" fill="white"/>
<path d="M53.0625 65.7369C52.8078 65.7878 52.4367 65.9261 52.2403 66.0352C51.891 66.2244 51.2944 66.7846 51.2944 66.9301C51.2944 67.0247 51.8692 67.1484 52.6987 67.2357C53.208 67.2794 53.9865 67.2794 55.187 67.2211C56.1474 67.1775 56.9405 67.1338 56.955 67.1193C57.0205 67.0611 56.4457 66.5154 56.0674 66.268C55.2452 65.7369 54.001 65.5186 53.0625 65.7369Z" fill="white"/>
<path d="M62.0772 66.3917C61.6406 66.5299 61.3059 66.8064 61.1168 67.192C60.9858 67.4685 60.964 67.6213 60.9785 68.0942C61.0149 68.8218 61.2332 69.1929 61.7934 69.4548C62.6665 69.8623 63.7288 69.4985 64.1217 68.6618C64.2745 68.3416 64.2817 67.6722 64.1362 67.3157C63.9616 66.901 63.5396 66.5154 63.1249 66.3917C62.6883 66.2607 62.4919 66.2607 62.0772 66.3917Z" fill="white"/>
<path d="M60.8116 72.176L59.8075 72.2124L59.5529 72.758C58.818 74.286 57.6175 75.3628 56.0605 75.8794C54.7218 76.3232 54.3216 76.3596 51.2585 76.3305C49.7378 76.3159 47.9189 76.2941 47.2277 76.2941L45.9544 76.2868L45.3214 78.0694C44.9722 79.0516 44.6812 79.9029 44.6812 79.9611C44.6812 80.0848 46.813 81.6854 48.0571 82.5003C50.0871 83.8318 51.9861 84.4794 54.4889 84.6976C55.4421 84.7777 57.2901 84.7631 57.3847 84.6685C57.4065 84.6394 57.3993 83.679 57.3629 82.5294C57.2828 80.2303 57.3338 78.8915 57.4866 78.7897C57.5448 78.7533 57.7849 78.7315 58.0177 78.7387L58.447 78.7606L58.5488 79.0516C58.6507 79.3281 58.7526 79.7865 59.4074 82.9442C59.5529 83.6426 59.6839 84.2247 59.6984 84.2393C59.7421 84.2902 61.2336 83.9482 61.7138 83.7736C62.3541 83.5481 63.4309 82.9878 63.751 82.7259L63.9766 82.5367L63.6928 81.1761L63.4163 79.8156H62.7906C62.063 79.8156 61.8375 79.721 61.7575 79.4008C61.6411 78.957 61.8302 78.6878 62.4559 78.3895C62.7615 78.2513 63.0235 78.1058 63.0453 78.0766C63.0889 77.9966 61.9103 72.0959 61.852 72.1178C61.8302 72.125 61.3573 72.1541 60.8116 72.176Z" fill="white"/>
<path d="M40.8612 73.2455C41.043 73.8421 41.2031 74.4096 41.2322 74.5188C41.2686 74.7152 41.2831 74.7225 41.8288 74.7298C42.1344 74.7298 42.9857 74.7734 43.7278 74.8244C44.4699 74.8753 45.0811 74.9044 45.0957 74.9044C45.1248 74.8826 46.0561 72.3142 46.0561 72.2414C46.0561 72.2051 44.9283 72.176 43.2985 72.176H40.541L40.8612 73.2455Z" fill="white"/>
<path d="M47.6058 73.3255C47.3512 73.9513 47.1475 74.5042 47.1475 74.5551C47.1475 74.788 49.7304 74.948 52.0222 74.8607C53.4701 74.8025 54.5106 74.6788 55.2236 74.4606C56.3877 74.1186 57.3409 73.311 57.6901 72.3724L57.7701 72.176H52.9099H48.0569L47.6058 73.3255Z" fill="white"/>
<path d="M65.0021 72.2997C65.0166 72.3724 65.4022 74.2496 65.8461 76.4687C66.2972 78.6878 66.6755 80.514 66.6828 80.5286C66.8065 80.6596 68.0143 79.5027 68.6472 78.6514C70.0515 76.7597 71.2302 74.2059 71.4848 72.5107L71.5357 72.176H68.2471C65.1549 72.176 64.9657 72.1832 65.0021 72.2997Z" fill="white"/>
<path d="M74.4683 72.4379C74.4101 72.5761 74.2136 73.2237 74.039 73.8712C73.6243 75.3846 73.3478 76.1704 72.8749 77.1599C71.7908 79.4372 69.9063 81.7946 68.0656 83.1552C67.6654 83.4535 67.3307 83.7008 67.3162 83.7081C67.2943 83.7227 68.8004 90.7948 68.8368 90.8384C68.895 90.8893 69.9354 90.6492 70.4229 90.4673C70.6848 90.3655 71.4706 90.0526 72.1618 89.7616C73.6316 89.1504 73.537 89.376 72.984 87.8335C72.7876 87.2878 72.5838 86.633 72.5402 86.3856C72.3292 85.3161 72.7657 84.9814 73.5442 85.5926C73.9226 85.8981 74.5701 86.6621 75.0358 87.3678C75.2322 87.6516 75.4287 87.8917 75.4723 87.8917C75.7634 87.8844 76.9057 87.1423 77.3786 86.6548L77.5896 86.4293L77.415 86.1019C77.2112 85.7235 76.7019 85.0541 75.5815 83.6717C75.1595 83.1479 74.7156 82.544 74.6065 82.333L74.4028 81.9401L74.8393 81.4453C77.5241 78.3895 79.5977 74.5406 79.5977 72.5907V72.176H77.0876H74.5774L74.4683 72.4379Z" fill="white"/>
<path d="M81.6054 72.9909C81.4672 73.442 81.2344 74.235 81.0888 74.7516C80.4777 76.9562 79.6482 78.6369 78.2658 80.5068C77.9966 80.8705 77.6838 81.3435 77.5601 81.569L77.3418 81.9765L77.7929 82.333C78.0475 82.5294 78.6369 83.0242 79.1025 83.4389L79.9611 84.1883L80.5286 83.6208C82.9514 81.1834 85.6653 75.7411 85.9636 72.6998L86.0218 72.176H83.941H81.8673L81.6054 72.9909Z" fill="white"/>
<path d="M45.4815 84.4866C45.6125 84.734 46.6602 85.7453 47.3659 86.3128C50.8147 89.0704 54.9182 90.9694 58.7016 91.566C60.215 91.7988 62.7979 91.8279 65.1407 91.6315L65.781 91.5805L65.7374 91.2822C65.4318 89.2886 64.9516 86.9313 64.6751 86.0873C64.5514 85.7162 64.5005 85.6362 64.3986 85.6726C63.4673 86.0582 61.27 86.8513 60.6807 87.0186C59.1673 87.4479 58.5852 87.5352 56.8099 87.5788C52.9829 87.6734 50.4363 87.0914 47.5769 85.4907C47.0822 85.2069 46.3837 84.8286 46.0345 84.6467C45.467 84.3557 45.4015 84.3411 45.4815 84.4866Z" fill="white"/>
</svg>
