<svg width="20" height="20" viewBox="0 0 20 20" fill="none" xmlns="http://www.w3.org/2000/svg">
<path d="M9.96357 12.4092L9.96377 12.4094L13.0545 14.2538C13.2677 14.3922 13.4941 14.44 13.7 14.44C14.1252 14.44 14.5438 14.2265 14.7793 13.8263C15.1425 13.2266 14.9408 12.4592 14.3443 12.1095L11.2462 10.2606L11.2462 10.2606L11.2411 10.2576C11.1915 10.2288 11.0936 10.134 11.0034 9.97531C10.9135 9.81724 10.88 9.68164 10.88 9.62V5.52C10.88 4.83386 10.3161 4.27 9.63 4.27C8.94386 4.27 8.38 4.83386 8.38 5.52V9.62C8.38 10.6856 9.04216 11.8588 9.96357 12.4092ZM0.5 10C0.5 4.76614 4.76614 0.5 10 0.5C15.2339 0.5 19.5 4.76614 19.5 10C19.5 15.2339 15.2339 19.5 10 19.5C4.76614 19.5 0.5 15.2339 0.5 10Z" fill="#D3D2D2" stroke="#D3D2D2"/>
</svg>
