<svg width="14" height="14" viewBox="0 0 14 14" fill="none" xmlns="http://www.w3.org/2000/svg">
<path d="M6.96863 8.61808L6.96877 8.61816L9.02907 9.84769C9.17374 9.94154 9.32732 9.97389 9.46671 9.97389C9.75475 9.97389 10.0385 9.82921 10.1982 9.55801C10.4443 9.15153 10.3076 8.63141 9.90335 8.39439L7.83798 7.16183L7.83799 7.16181L7.83439 7.15972C7.8043 7.14225 7.74055 7.08132 7.68103 6.97667C7.62176 6.87246 7.6006 6.78447 7.6006 6.74667V4.01333C7.6006 3.54823 7.21847 3.16611 6.75337 3.16611C6.28827 3.16611 5.90615 3.54823 5.90615 4.01333V6.74667C5.90615 7.46192 6.35015 8.2486 6.96863 8.61808ZM0.680596 7C0.680596 3.51843 3.51847 0.680554 7.00004 0.680554C10.4816 0.680554 13.3195 3.51843 13.3195 7C13.3195 10.4816 10.4816 13.3194 7.00004 13.3194C3.51847 13.3194 0.680596 10.4816 0.680596 7Z" fill="#FE4557" stroke="#FE4557" stroke-width="0.694444"/>
</svg>
