<svg width="15" height="16" viewBox="0 0 15 16" fill="none" xmlns="http://www.w3.org/2000/svg">
<path d="M2.5 9.57552H4.16875C4.33272 9.57552 4.46823 9.71103 4.46823 9.875V13.625C4.46823 13.789 4.33272 13.9245 4.16875 13.9245H1.875C1.71103 13.9245 1.57552 13.789 1.57552 13.625V10.5C1.57552 9.99228 1.99228 9.57552 2.5 9.57552Z" fill="#44C4A1" stroke="#44C4A1" stroke-width="0.651042"/>
<path d="M8.33135 6.75H6.6626C5.9751 6.75 5.4126 7.3125 5.4126 8V13.625C5.4126 13.9688 5.69385 14.25 6.0376 14.25H8.95635C9.3001 14.25 9.58135 13.9688 9.58135 13.625V8C9.58135 7.3125 9.0251 6.75 8.33135 6.75Z" fill="#44C4A1"/>
<path d="M12.4999 11.125H10.8312C10.4874 11.125 10.2062 11.4062 10.2062 11.75V13.625C10.2062 13.9688 10.4874 14.25 10.8312 14.25H13.1249C13.4687 14.25 13.7499 13.9688 13.7499 13.625V12.375C13.7499 11.6875 13.1874 11.125 12.4999 11.125Z" fill="#44C4A1"/>
<path d="M9.38127 3.53125C9.57502 3.3375 9.65002 3.10625 9.58752 2.90625C9.52502 2.70625 9.33127 2.5625 9.05627 2.51875L8.45627 2.41875C8.43127 2.41875 8.37502 2.375 8.36252 2.35L8.03127 1.6875C7.78127 1.18125 7.21252 1.18125 6.96252 1.6875L6.63127 2.35C6.62502 2.375 6.56877 2.41875 6.54377 2.41875L5.94377 2.51875C5.66877 2.5625 5.48127 2.70625 5.41252 2.90625C5.35002 3.10625 5.42502 3.3375 5.61877 3.53125L6.08127 4C6.10627 4.01875 6.12502 4.09375 6.11877 4.11875L5.98752 4.69375C5.88752 5.125 6.05002 5.31875 6.15627 5.39375C6.26252 5.46875 6.49377 5.56875 6.87502 5.34375L7.43752 5.0125C7.46252 4.99375 7.54377 4.99375 7.56877 5.0125L8.12502 5.34375C8.30002 5.45 8.44377 5.48125 8.55627 5.48125C8.68752 5.48125 8.78127 5.43125 8.83752 5.39375C8.94377 5.31875 9.10627 5.125 9.00627 4.69375L8.87502 4.11875C8.86877 4.0875 8.88752 4.01875 8.91252 4L9.38127 3.53125Z" fill="#44C4A1"/>
</svg>
