<svg width="27" height="36" viewBox="0 0 27 36" fill="none" xmlns="http://www.w3.org/2000/svg">
<path d="M4.5 0H16.4092C17.0059 0.000127434 17.5781 0.237264 18 0.65925L26.3407 9C26.7627 9.42186 26.9999 9.99406 27 10.5907V31.5C27 32.6935 26.5259 33.8381 25.682 34.682C24.8381 35.5259 23.6935 36 22.5 36H4.5C3.30653 36 2.16193 35.5259 1.31802 34.682C0.474106 33.8381 0 32.6935 0 31.5V4.5C0 3.30653 0.474106 2.16193 1.31802 1.31802C2.16193 0.474106 3.30653 0 4.5 0V0ZM16.875 3.375V7.875C16.875 8.47174 17.1121 9.04403 17.534 9.46599C17.956 9.88795 18.5283 10.125 19.125 10.125H23.625L16.875 3.375Z" fill="#1294F2"/>
<path d="M4.714 27.04C4.504 27.04 4.33133 26.9793 4.196 26.858C4.06533 26.732 4 26.578 4 26.396C4 26.2093 4.06533 26.053 4.196 25.927C4.33133 25.801 4.504 25.738 4.714 25.738C4.91933 25.738 5.08733 25.801 5.218 25.927C5.35333 26.053 5.421 26.2093 5.421 26.396C5.421 26.578 5.35333 26.732 5.218 26.858C5.08733 26.9793 4.91933 27.04 4.714 27.04Z" fill="white"/>
<path d="M8.31674 22.07C8.83474 22.07 9.28741 22.1727 9.67474 22.378C10.0621 22.5833 10.3607 22.8727 10.5707 23.246C10.7854 23.6147 10.8927 24.0417 10.8927 24.527C10.8927 25.0077 10.7854 25.4347 10.5707 25.808C10.3607 26.1813 10.0597 26.4707 9.66774 26.676C9.28041 26.8813 8.83007 26.984 8.31674 26.984H6.47574V22.07H8.31674ZM8.23974 25.948C8.69241 25.948 9.04474 25.8243 9.29674 25.577C9.54874 25.3297 9.67474 24.9797 9.67474 24.527C9.67474 24.0743 9.54874 23.722 9.29674 23.47C9.04474 23.218 8.69241 23.092 8.23974 23.092H7.67274V25.948H8.23974Z" fill="white"/>
<path d="M14.2318 27.033C13.7698 27.033 13.3452 26.9257 12.9578 26.711C12.5752 26.4963 12.2695 26.1977 12.0408 25.815C11.8168 25.4277 11.7048 24.9937 11.7048 24.513C11.7048 24.0323 11.8168 23.6007 12.0408 23.218C12.2695 22.8353 12.5752 22.5367 12.9578 22.322C13.3452 22.1073 13.7698 22 14.2318 22C14.6938 22 15.1162 22.1073 15.4988 22.322C15.8862 22.5367 16.1895 22.8353 16.4088 23.218C16.6328 23.6007 16.7448 24.0323 16.7448 24.513C16.7448 24.9937 16.6328 25.4277 16.4088 25.815C16.1848 26.1977 15.8815 26.4963 15.4988 26.711C15.1162 26.9257 14.6938 27.033 14.2318 27.033ZM14.2318 25.941C14.6238 25.941 14.9365 25.8103 15.1698 25.549C15.4078 25.2877 15.5268 24.9423 15.5268 24.513C15.5268 24.079 15.4078 23.7337 15.1698 23.477C14.9365 23.2157 14.6238 23.085 14.2318 23.085C13.8352 23.085 13.5178 23.2133 13.2798 23.47C13.0465 23.7267 12.9298 24.0743 12.9298 24.513C12.9298 24.947 13.0465 25.2947 13.2798 25.556C13.5178 25.8127 13.8352 25.941 14.2318 25.941Z" fill="white"/>
<path d="M17.5539 24.52C17.5539 24.0347 17.6589 23.603 17.8689 23.225C18.0789 22.8423 18.3706 22.546 18.7439 22.336C19.1219 22.1213 19.5489 22.014 20.0249 22.014C20.6082 22.014 21.1076 22.168 21.5229 22.476C21.9382 22.784 22.2159 23.204 22.3559 23.736H21.0399C20.9419 23.5307 20.8019 23.3743 20.6199 23.267C20.4426 23.1597 20.2396 23.106 20.0109 23.106C19.6422 23.106 19.3436 23.2343 19.1149 23.491C18.8862 23.7477 18.7719 24.0907 18.7719 24.52C18.7719 24.9493 18.8862 25.2923 19.1149 25.549C19.3436 25.8057 19.6422 25.934 20.0109 25.934C20.2396 25.934 20.4426 25.8803 20.6199 25.773C20.8019 25.6657 20.9419 25.5093 21.0399 25.304H22.3559C22.2159 25.836 21.9382 26.256 21.5229 26.564C21.1076 26.8673 20.6082 27.019 20.0249 27.019C19.5489 27.019 19.1219 26.914 18.7439 26.704C18.3706 26.4893 18.0789 26.193 17.8689 25.815C17.6589 25.437 17.5539 25.0053 17.5539 24.52Z" fill="white"/>
</svg>
