<svg width="11" height="14" viewBox="0 0 11 14" fill="none" xmlns="http://www.w3.org/2000/svg">
<path d="M10.4383 2.33986L10.4391 2.34182C10.5756 2.66862 10.4504 3.19151 9.77765 3.8643L8.97765 4.6643C8.69541 4.94653 8.53689 5.33484 8.55353 5.73145C8.56306 6.08668 8.71005 6.41918 8.97232 6.65037L9.7765 7.45455C9.77671 7.45476 9.77692 7.45497 9.77712 7.45518C10.4346 8.11932 10.5565 8.63598 10.4191 8.96485C10.2805 9.29672 9.82389 9.58 8.90002 9.58H1.93335H1.60002V9.91333V13.1667C1.60002 13.2559 1.52259 13.3333 1.43335 13.3333C1.34411 13.3333 1.26668 13.2559 1.26668 13.1667V0.833334C1.26668 0.744096 1.34411 0.666667 1.43335 0.666667C1.52259 0.666667 1.60002 0.744096 1.60002 0.833334V1.40667V1.74H1.93335H8.90002C9.84645 1.74 10.3077 2.02148 10.4383 2.33986Z" fill="#1A5CCE" stroke="#1A5CCE" stroke-width="0.666667"/>
</svg>
