<svg width="16" height="16" viewBox="0 0 16 16" fill="none" xmlns="http://www.w3.org/2000/svg">
<circle cx="8" cy="8.00021" r="8" fill="#1A5CCE"/>
<g clip-path="url(#clip0_670_12449)">
<path fill-rule="evenodd" clip-rule="evenodd" d="M3.19995 6.20023C3.19995 5.88197 3.32638 5.57674 3.55142 5.3517C3.77647 5.12665 4.08169 5.00023 4.39995 5.00023H8.89995C9.19101 5.00019 9.47215 5.10594 9.69104 5.29778C9.90992 5.48962 10.0516 5.75448 10.0898 6.04303L11.9558 5.21383C12.0471 5.17313 12.1471 5.1559 12.2468 5.16372C12.3465 5.17153 12.4427 5.20413 12.5266 5.25856C12.6104 5.31299 12.6794 5.38752 12.7271 5.47538C12.7749 5.56324 12.7999 5.66163 12.8 5.76163V10.2388C12.7999 10.3387 12.7748 10.4371 12.7271 10.5248C12.6794 10.6126 12.6105 10.6871 12.5267 10.7415C12.4429 10.7959 12.3469 10.8286 12.2473 10.8364C12.1477 10.8443 12.0477 10.8272 11.9564 10.7866L10.0898 9.95743C10.0516 10.246 9.90992 10.5108 9.69104 10.7027C9.47215 10.8945 9.19101 11.0003 8.89995 11.0002H4.39995C4.08169 11.0002 3.77647 10.8738 3.55142 10.6488C3.32638 10.4237 3.19995 10.1185 3.19995 9.80023V6.20023Z" fill="white"/>
</g>
<defs>
<clipPath id="clip0_670_12449">
<rect width="9.6" height="9.6" fill="white" transform="translate(3.19995 3.20023)"/>
</clipPath>
</defs>
</svg>
