<svg width="27" height="36" viewBox="0 0 27 36" fill="none" xmlns="http://www.w3.org/2000/svg">
<path d="M4.5 0H16.4093C17.0059 0.000127434 17.5781 0.237264 18 0.65925L26.3407 9C26.7627 9.42186 26.9999 9.99406 27 10.5907V31.5C27 32.6935 26.5259 33.8381 25.682 34.682C24.8381 35.5259 23.6935 36 22.5 36H4.5C3.30653 36 2.16193 35.5259 1.31802 34.682C0.474106 33.8381 0 32.6935 0 31.5V4.5C0 3.30653 0.474106 2.16193 1.31802 1.31802C2.16193 0.474106 3.30653 0 4.5 0V0ZM16.875 3.375V7.875C16.875 8.47174 17.1121 9.04403 17.534 9.46599C17.956 9.88795 18.5283 10.125 19.125 10.125H23.625L16.875 3.375Z" fill="#F1351B"/>
<path d="M6.714 26.97C6.504 26.97 6.33133 26.9093 6.196 26.788C6.06533 26.662 6 26.508 6 26.326C6 26.1393 6.06533 25.983 6.196 25.857C6.33133 25.731 6.504 25.668 6.714 25.668C6.91933 25.668 7.08733 25.731 7.218 25.857C7.35333 25.983 7.421 26.1393 7.421 26.326C7.421 26.508 7.35333 26.662 7.218 26.788C7.08733 26.9093 6.91933 26.97 6.714 26.97Z" fill="white"/>
<path d="M12.0746 23.582C12.0746 23.8667 12.0093 24.128 11.8786 24.366C11.7479 24.5993 11.5473 24.7883 11.2766 24.933C11.0059 25.0777 10.6699 25.15 10.2686 25.15H9.52659V26.914H8.32959V22H10.2686C10.6606 22 10.9919 22.0677 11.2626 22.203C11.5333 22.3383 11.7363 22.525 11.8716 22.763C12.0069 23.001 12.0746 23.274 12.0746 23.582ZM10.1776 24.198C10.4063 24.198 10.5766 24.1443 10.6886 24.037C10.8006 23.9297 10.8566 23.778 10.8566 23.582C10.8566 23.386 10.8006 23.2343 10.6886 23.127C10.5766 23.0197 10.4063 22.966 10.1776 22.966H9.52659V24.198H10.1776Z" fill="white"/>
<path d="M14.7388 22C15.2568 22 15.7094 22.1027 16.0968 22.308C16.4841 22.5133 16.7828 22.8027 16.9928 23.176C17.2074 23.5447 17.3148 23.9717 17.3148 24.457C17.3148 24.9377 17.2074 25.3647 16.9928 25.738C16.7828 26.1113 16.4818 26.4007 16.0898 26.606C15.7024 26.8113 15.2521 26.914 14.7388 26.914H12.8978V22H14.7388ZM14.6618 25.878C15.1144 25.878 15.4668 25.7543 15.7188 25.507C15.9708 25.2597 16.0968 24.9097 16.0968 24.457C16.0968 24.0043 15.9708 23.652 15.7188 23.4C15.4668 23.148 15.1144 23.022 14.6618 23.022H14.0948V25.878H14.6618Z" fill="white"/>
<path d="M21.3827 22V22.959H19.3807V23.995H20.8787V24.926H19.3807V26.914H18.1837V22H21.3827Z" fill="white"/>
</svg>
