<svg width="27" height="36" viewBox="0 0 27 36" fill="none" xmlns="http://www.w3.org/2000/svg">
<path d="M4.5 0H16.4093C17.0059 0.000127434 17.5781 0.237264 18 0.65925L26.3407 9C26.7627 9.42186 26.9999 9.99406 27 10.5907V31.5C27 32.6935 26.5259 33.8381 25.682 34.682C24.8381 35.5259 23.6935 36 22.5 36H4.5C3.30653 36 2.16193 35.5259 1.31802 34.682C0.474106 33.8381 0 32.6935 0 31.5V4.5C0 3.30653 0.474106 2.16193 1.31802 1.31802C2.16193 0.474106 3.30653 0 4.5 0V0ZM16.875 3.375V7.875C16.875 8.47174 17.1121 9.04403 17.534 9.46599C17.956 9.88795 18.5283 10.125 19.125 10.125H23.625L16.875 3.375Z" fill="#27AE60"/>
<path d="M6.714 27.04C6.504 27.04 6.33133 26.9793 6.196 26.858C6.06533 26.732 6 26.578 6 26.396C6 26.2093 6.06533 26.053 6.196 25.927C6.33133 25.801 6.504 25.738 6.714 25.738C6.91933 25.738 7.08733 25.801 7.218 25.927C7.35333 26.053 7.421 26.2093 7.421 26.396C7.421 26.578 7.35333 26.732 7.218 26.858C7.08733 26.9793 6.91933 27.04 6.714 27.04Z" fill="white"/>
<path d="M11.3396 26.984L10.3386 25.479L9.45659 26.984H8.09859L9.67359 24.485L8.06359 22.07H9.45659L10.4436 23.554L11.3116 22.07H12.6696L11.1086 24.548L12.7326 26.984H11.3396Z" fill="white"/>
<path d="M14.7305 26.06H16.2985V26.984H13.5335V22.07H14.7305V26.06Z" fill="white"/>
<path d="M18.8474 27.033C18.4881 27.033 18.1661 26.9747 17.8814 26.858C17.5968 26.7413 17.3681 26.5687 17.1954 26.34C17.0274 26.1113 16.9388 25.836 16.9294 25.514H18.2034C18.2221 25.696 18.2851 25.836 18.3924 25.934C18.4998 26.0273 18.6398 26.074 18.8124 26.074C18.9898 26.074 19.1298 26.0343 19.2324 25.955C19.3351 25.871 19.3864 25.7567 19.3864 25.612C19.3864 25.4907 19.3444 25.3903 19.2604 25.311C19.1811 25.2317 19.0808 25.1663 18.9594 25.115C18.8428 25.0637 18.6748 25.0053 18.4554 24.94C18.1381 24.842 17.8791 24.744 17.6784 24.646C17.4778 24.548 17.3051 24.4033 17.1604 24.212C17.0158 24.0207 16.9434 23.771 16.9434 23.463C16.9434 23.0057 17.1091 22.6487 17.4404 22.392C17.7718 22.1307 18.2034 22 18.7354 22C19.2768 22 19.7131 22.1307 20.0444 22.392C20.3758 22.6487 20.5531 23.008 20.5764 23.47H19.2814C19.2721 23.3113 19.2138 23.1877 19.1064 23.099C18.9991 23.0057 18.8614 22.959 18.6934 22.959C18.5488 22.959 18.4321 22.9987 18.3434 23.078C18.2548 23.1527 18.2104 23.2623 18.2104 23.407C18.2104 23.5657 18.2851 23.6893 18.4344 23.778C18.5838 23.8667 18.8171 23.9623 19.1344 24.065C19.4518 24.1723 19.7084 24.275 19.9044 24.373C20.1051 24.471 20.2778 24.6133 20.4224 24.8C20.5671 24.9867 20.6394 25.227 20.6394 25.521C20.6394 25.801 20.5671 26.0553 20.4224 26.284C20.2824 26.5127 20.0771 26.6947 19.8064 26.83C19.5358 26.9653 19.2161 27.033 18.8474 27.033Z" fill="white"/>
</svg>
