<svg width="24" height="24" viewBox="0 0 24 24" fill="none" xmlns="http://www.w3.org/2000/svg">
<path d="M3.41016 21.5C3.41016 17.722 7.17176 14.5 12.0002 14.5C16.8286 14.5 20.5902 17.722 20.5902 21.5H3.41016Z" fill="#1A5CCE" stroke="#1A5CCE"/>
<path d="M9.19026 3.49209L9.19027 3.4921L9.1929 3.48999C9.96808 2.86804 10.9387 2.5 12 2.5C14.4839 2.5 16.5 4.51614 16.5 7C16.5 7.84656 16.2661 8.63625 15.8538 9.30859L15.8536 9.3085L15.8471 9.31986C15.617 9.71799 15.3149 10.074 14.967 10.3683L14.9614 10.373L14.956 10.3779C14.1668 11.0864 13.1354 11.5 12 11.5C10.3542 11.5 8.93395 10.6198 8.16005 9.31494L8.16018 9.31486L8.15368 9.30449C7.73372 8.63434 7.5 7.8464 7.5 7C7.5 5.57736 8.15651 4.31011 9.19026 3.49209ZM10.265 9.25212L10.2664 9.25355C10.5463 9.53345 10.9163 9.67 11.28 9.67C11.625 9.67 11.9803 9.54954 12.2608 9.28585L14.9287 6.82777C15.5179 6.28516 15.5377 5.37164 15.0121 4.78605L15.0122 4.78602L15.0078 4.78126C14.4679 4.19512 13.5614 4.16799 12.9814 4.70211C12.9813 4.70215 12.9813 4.70219 12.9813 4.70223L11.3244 6.22724L11.0736 5.97645C10.5083 5.41118 9.60171 5.41118 9.03645 5.97645C8.47145 6.54144 8.47119 7.44744 9.03565 8.01275C9.03591 8.01302 9.03618 8.01329 9.03645 8.01355L10.265 9.25212L10.265 9.25212Z" fill="#1A5CCE" stroke="#1A5CCE"/>
</svg>
