<svg width="12" height="8" viewBox="0 0 12 8" fill="none" xmlns="http://www.w3.org/2000/svg">
<path fill-rule="evenodd" clip-rule="evenodd" d="M0.59996 1.97506C0.59996 1.61702 0.742192 1.27364 0.995366 1.02047C1.24854 0.767293 1.59192 0.625061 1.94996 0.625061H7.01246C7.3399 0.625023 7.65619 0.743991 7.90243 0.959812C8.14868 1.17563 8.30809 1.4736 8.35099 1.79821L10.4502 0.865361C10.553 0.819577 10.6656 0.800199 10.7777 0.808989C10.8899 0.817778 10.998 0.854457 11.0924 0.915691C11.1868 0.976924 11.2643 1.06077 11.318 1.15961C11.3718 1.25845 11.3999 1.36914 11.4 1.48164V6.51849C11.3999 6.63089 11.3717 6.74149 11.318 6.84025C11.2643 6.93901 11.1868 7.0228 11.0926 7.08401C10.9983 7.14523 10.8902 7.18193 10.7782 7.19079C10.6661 7.19966 10.5536 7.1804 10.4509 7.13476L8.35099 6.20191C8.30809 6.52653 8.14868 6.82449 7.90243 7.04031C7.65619 7.25613 7.3399 7.3751 7.01246 7.37506H1.94996C1.59192 7.37506 1.24854 7.23283 0.995366 6.97965C0.742192 6.72648 0.59996 6.3831 0.59996 6.02506V1.97506Z" fill="white"/>
</svg>
