<svg width="24" height="24" viewBox="0 0 24 24" fill="none" xmlns="http://www.w3.org/2000/svg">
<path d="M3.78267 7.2456L3.78268 7.2456L9.17253 3.04572C9.17258 3.04568 9.17263 3.04564 9.17267 3.0456C9.82008 2.54081 10.6736 2.29443 11.5054 2.27637C12.3374 2.25831 13.2026 2.46745 13.8769 2.94051L3.78267 7.2456ZM3.78267 7.2456L3.78036 7.24742C3.3487 7.58788 2.97237 8.11412 2.7052 8.65659C2.43834 9.19844 2.25 9.81821 2.25 10.37V17.78C2.25 19.9643 4.02198 21.75 6.21 21.75H17.79C19.9761 21.75 21.75 19.9761 21.75 17.79V10.51C21.75 9.92464 21.5446 9.27178 21.2496 8.70626C20.9553 8.14219 20.5383 7.60042 20.0547 7.26898L13.8772 2.94073L3.78267 7.2456ZM3.47697 6.85468L3.47732 6.8544L8.86697 2.65468C8.86707 2.6546 8.86718 2.65452 8.86728 2.65444C8.86729 2.65443 8.86731 2.65442 8.86733 2.6544C10.3134 1.52995 12.662 1.47515 14.1626 2.52916L14.1631 2.5295L20.3431 6.8595L20.344 6.86011C20.8581 7.21867 21.3396 7.80222 21.6931 8.47897C22.0465 9.15575 22.25 9.88393 22.25 10.51V17.79C22.25 20.2445 20.2532 22.25 17.79 22.25H6.21C3.74745 22.25 1.75 20.2452 1.75 17.78V10.37C1.75 9.78454 1.93347 9.09268 2.2538 8.44041C2.57405 7.7883 3.01069 7.21734 3.47697 6.85468Z" fill="#8996A2" stroke="#8996A2"/>
<path d="M12 18.25C11.8661 18.25 11.75 18.1339 11.75 18V15C11.75 14.8661 11.8661 14.75 12 14.75C12.1339 14.75 12.25 14.8661 12.25 15V18C12.25 18.1339 12.1339 18.25 12 18.25Z" fill="#8996A2" stroke="#8996A2"/>
</svg>
