<svg width="20" height="20" viewBox="0 0 20 20" fill="none" xmlns="http://www.w3.org/2000/svg">
<path d="M19.49 5.80863V5.81V14.19C19.49 15.9106 18.9791 17.2238 18.0964 18.1064C17.2138 18.9891 15.9006 19.5 14.18 19.5H5.81C4.08945 19.5 2.77634 18.9891 1.89377 18.1054C1.01114 17.2217 0.5 15.9059 0.5 14.18V5.81C0.5 4.08944 1.01093 2.77618 1.89355 1.89355C2.77618 1.01093 4.08944 0.5 5.81 0.5H14.19C15.9107 0.5 17.2237 1.01097 18.105 1.89333C18.9861 2.77559 19.4947 4.08838 19.49 5.80863ZM5 15.75H15C15.6861 15.75 16.25 15.1861 16.25 14.5C16.25 13.8139 15.6861 13.25 15 13.25H5C4.31386 13.25 3.75 13.8139 3.75 14.5C3.75 15.1861 4.31386 15.75 5 15.75ZM5 11.25H15C15.6861 11.25 16.25 10.6861 16.25 10C16.25 9.31386 15.6861 8.75 15 8.75H5C4.31386 8.75 3.75 9.31386 3.75 10C3.75 10.6861 4.31386 11.25 5 11.25ZM5 6.75H15C15.6861 6.75 16.25 6.18614 16.25 5.5C16.25 4.81386 15.6861 4.25 15 4.25H5C4.31386 4.25 3.75 4.81386 3.75 5.5C3.75 6.18614 4.31386 6.75 5 6.75Z" fill="#1A5CCE" stroke="#1A5CCE"/>
</svg>
