<svg width="18" height="18" viewBox="0 0 18 18" fill="none" xmlns="http://www.w3.org/2000/svg">
<circle cx="9" cy="9" r="9" fill="#1A5CCE"/>
<g clip-path="url(#clip0_1983_16009)">
<path fill-rule="evenodd" clip-rule="evenodd" d="M3.6001 6.97502C3.6001 6.61697 3.74233 6.2736 3.9955 6.02042C4.24868 5.76725 4.59206 5.62502 4.9501 5.62502H10.0126C10.34 5.62498 10.6563 5.74395 10.9026 5.95977C11.1488 6.17559 11.3082 6.47355 11.3511 6.79817L13.4504 5.86532C13.5531 5.81953 13.6657 5.80015 13.7778 5.80894C13.89 5.81773 13.9982 5.85441 14.0925 5.91564C14.1869 5.97688 14.2645 6.06073 14.3182 6.15956C14.3719 6.2584 14.4001 6.3691 14.4001 6.48159V11.5184C14.4 11.6308 14.3718 11.7414 14.3182 11.8402C14.2645 11.939 14.187 12.0227 14.0927 12.084C13.9984 12.1452 13.8904 12.1819 13.7783 12.1907C13.6663 12.1996 13.5538 12.1804 13.451 12.1347L11.3511 11.2019C11.3082 11.5265 11.1488 11.8244 10.9026 12.0403C10.6563 12.2561 10.34 12.3751 10.0126 12.375H4.9501C4.59206 12.375 4.24868 12.2328 3.9955 11.9796C3.74233 11.7264 3.6001 11.3831 3.6001 11.025V6.97502Z" fill="white"/>
</g>
<defs>
<clipPath id="clip0_1983_16009">
<rect width="10.8" height="10.8" fill="white" transform="translate(3.6001 3.60001)"/>
</clipPath>
</defs>
</svg>
